<svg xmlns="http://www.w3.org/2000/svg" xmlns:xlink="http://www.w3.org/1999/xlink" width="118" height="108" viewBox="0 0 118 108">
  <defs>
    <filter id="Rectangle_5898" x="0" y="0" width="118" height="108" filterUnits="userSpaceOnUse">
      <feOffset dy="3" input="SourceAlpha"/>
      <feGaussianBlur stdDeviation="3" result="blur"/>
      <feFlood flood-opacity="0.161"/>
      <feComposite operator="in" in2="blur"/>
      <feComposite in="SourceGraphic"/>
    </filter>
  </defs>
  <g id="_1350_SFT_-_grey" data-name="1350 SFT - grey" transform="translate(-815 -568)">
    <g transform="matrix(1, 0, 0, 1, 815, 568)" filter="url(#Rectangle_5898)">
      <rect id="Rectangle_5898-2" data-name="Rectangle 5898" width="100" height="90" rx="6" transform="translate(9 6)" fill="gray"/>
    </g>
    <g id="Group_42298" data-name="Group 42298" transform="translate(-20 8.5)">
      <g id="Group_42296" data-name="Group 42296" transform="translate(-2070 -209)">
        <rect id="Rectangle_5895" data-name="Rectangle 5895" width="50" height="50" transform="translate(2939 783)" fill="rgba(255,255,255,0)"/>
        <path id="blueprint" d="M608,562.492v.977a4.882,4.882,0,0,1-1.367,1.907c-1.289,1.264-2.557,2.548-3.832,3.826-.12.12-.229.25-.425.462h2.97a2.467,2.467,0,0,1,2.181,1.063,7.274,7.274,0,0,1,.473.945v34.277A2.812,2.812,0,0,1,605.949,608H564.055a2.389,2.389,0,0,0-.273-.087,6.764,6.764,0,0,1-5.543-4.934c-.1-.307-.16-.624-.238-.936V563.859a2.1,2.1,0,0,0,.09-.268,6.606,6.606,0,0,1,4.837-5.359c.3-.1.621-.155.932-.232h2.93c1.629.651,2.047,1.284,2.047,3.064v8.6h.458q10.323,0,20.645-.014a1.116,1.116,0,0,0,.706-.312q5.038-5,10.047-10.035a4.706,4.706,0,0,1,1.84-1.3h.977a4,4,0,0,1,1.823,1.229c.453.484.925.954,1.409,1.408A4.1,4.1,0,0,1,608,562.492Zm-39.164,8.869v22.21a2.532,2.532,0,0,1-2.756,2.767c-.651,0-1.3-.01-1.953.039a4.966,4.966,0,0,0-4.393,5.645,5.162,5.162,0,0,0,5.3,4.314h40.181c.841,0,1.122-.276,1.122-1.1V572.418c0-.806-.275-1.081-1.086-1.085-1.352,0-2.7.01-4.052-.008a1.133,1.133,0,0,0-.9.363c-2.454,2.478-4.918,4.931-7.374,7.4a3.262,3.262,0,0,1-1.891,1.042,35.284,35.284,0,0,1-3.785.349c-3.71.047-7.422.017-11.131.017h-.6v9.125H595.5v-3.939c0-.615.319-1,.816-1.01s.84.391.846,1.03v11.9c0,1.473-.6,2.065-2.077,2.065H579.268a2.334,2.334,0,0,1-.721-.077.742.742,0,0,1-.531-.833.751.751,0,0,1,.664-.73,3.055,3.055,0,0,1,.536-.023h5.419V591.37h-9.142v11.22a4.685,4.685,0,0,1-.009.488.79.79,0,0,1-.767.74.8.8,0,0,1-.858-.642,2.915,2.915,0,0,1-.029-.583v-22.1c-.855,0-1.65.012-2.444,0a.818.818,0,0,1-.88-.788.856.856,0,0,1,.862-.87c.146-.012.293,0,.439,0h13.678c.055-.687.1-1.315.155-1.943.229-2.748.23-2.749,2.188-4.711l.8-.811Zm-9.172,25.391c.694-.477,1.323-.968,2.006-1.362a7.911,7.911,0,0,1,4.221-.736c1.066.016,1.28-.211,1.28-1.282v-32.4a3.677,3.677,0,0,0-.012-.536.769.769,0,0,0-.762-.753,14.088,14.088,0,0,0-2.865.143,4.925,4.925,0,0,0-3.872,5.063v31.43Zm38-31.879-8.973,8.971c1.147,1.151,2.344,2.344,3.493,3.5l8.984-8.969Zm-11.3,26.481v6.621h9.115v-6.621Zm18.522-26.582c.417-.426.84-.829,1.225-1.264a.759.759,0,0,0,0-1.105c-.82-.858-1.663-1.693-2.516-2.517a.72.72,0,0,0-1.023-.061c-.465.419-.866.911-1.285,1.358Zm-1.3,1.256-3.527-3.555-1.105,1.1,3.53,3.544Zm-12.967,12.494-3.133-3.125c-.091.836-.206,1.77-.289,2.707-.046.521.177.747.678.7C588.825,578.729,589.771,578.612,590.617,578.521Z" transform="translate(2381 225)" fill="#fff"/>
      </g>
      <text id="_1350_SFT" data-name="1350 SFT" transform="translate(894 643)" fill="#fff" font-size="14" font-family="SofiaPro-Regular, Sofia Pro"><tspan x="-27.454" y="0">1350 SFT</tspan></text>
    </g>
  </g>
</svg>
