<svg xmlns="http://www.w3.org/2000/svg" xmlns:xlink="http://www.w3.org/1999/xlink" width="118" height="108" viewBox="0 0 118 108">
  <defs>
    <filter id="Rectangle_5897" x="0" y="0" width="118" height="108" filterUnits="userSpaceOnUse">
      <feOffset dy="3" input="SourceAlpha"/>
      <feGaussianBlur stdDeviation="3" result="blur"/>
      <feFlood flood-opacity="0.161"/>
      <feComposite operator="in" in2="blur"/>
      <feComposite in="SourceGraphic"/>
    </filter>
  </defs>
  <g id="_20_Acers_-_Grey" data-name="20 Acers - Grey" transform="translate(-694 -568)">
    <g transform="matrix(1, 0, 0, 1, 694, 568)" filter="url(#Rectangle_5897)">
      <rect id="Rectangle_5897-2" data-name="Rectangle 5897" width="100" height="90" rx="6" transform="translate(9 6)" fill="gray"/>
    </g>
    <g id="Group_42297" data-name="Group 42297" transform="translate(11 9)">
      <g id="Group_42294" data-name="Group 42294" transform="translate(-2171 237)">
        <rect id="Rectangle_5893" data-name="Rectangle 5893" width="50" height="50" transform="translate(2888 337)" fill="rgba(255,255,255,0)"/>
        <g id="land" transform="translate(2888.857 337)">
          <path id="Path_24963" data-name="Path 24963" d="M603.174,558h.586a8.229,8.229,0,0,1,.753.8c.724,1,1.423,2.019,2.13,3.032.773,1.105,1.553,2.207,2.315,3.32a.96.96,0,0,1-.5,1.562,1.98,1.98,0,0,0-.206.113c.651.911,1.29,1.8,1.906,2.7a.961.961,0,0,1-.577,1.588c-.073.021-.143.053-.242.091.723,1.025,1.419,2.023,2.133,3.011a1.083,1.083,0,0,1,.194,1.22,1.106,1.106,0,0,1-1.12.53c-1.854-.008-3.708,0-5.562,0h-.521V578.7h3.495a1.01,1.01,0,0,1,1.148,1c.272,1.953.534,3.9.8,5.843q.812,5.825,1.62,11.646c.436,3.138.866,6.277,1.311,9.413a1.162,1.162,0,0,1-.682,1.4H565.286a1.167,1.167,0,0,1-.682-1.4q.77-5.431,1.513-10.865.807-5.819,1.612-11.638c.2-1.465.391-2.931.6-4.394a1,1,0,0,1,1.1-.995h3.532v-2.743h-6.225a1,1,0,0,1-.97-.531.983.983,0,0,1,.118-1.1c.566-.794,1.128-1.591,1.693-2.388.172-.243.34-.49.521-.747-1.13-.35-1.332-.952-.681-1.874l1.768-2.5c-1.052-.479-1.186-.992-.54-1.915,1.426-2.038,2.846-4.08,4.283-6.11a7.787,7.787,0,0,1,.751-.8h.583a2.875,2.875,0,0,1,.546.464q2.376,3.366,4.721,6.751a.942.942,0,0,1-.5,1.493c-.073.03-.143.065-.242.111.651.924,1.3,1.823,1.923,2.734a.96.96,0,0,1-.521,1.551l-.318.1,1.479,2.09c.51-.72.984-1.389,1.479-2.09-.111-.04-.168-.065-.227-.082a.972.972,0,0,1-.586-1.614c.154-.229.319-.452.478-.677l1.432-2.012c-1.034-.424-1.2-.974-.594-1.837,1.452-2.083,2.9-4.157,4.363-6.226a6.428,6.428,0,0,1,.732-.753h.587a2.785,2.785,0,0,1,.505.436q2.391,3.385,4.752,6.787a.941.941,0,0,1-.475,1.474c-.086.036-.171.076-.276.122.651.926,1.3,1.823,1.926,2.734a.952.952,0,0,1-.3,1.461,4.343,4.343,0,0,1-.539.191l1.479,2.09,1.461-2.068a1.165,1.165,0,0,0-.161-.092c-.911-.279-1.126-.919-.577-1.708.3-.427.6-.849.9-1.273l.945-1.335c-1.033-.423-1.191-.98-.586-1.846,1.461-2.091,2.918-4.185,4.392-6.266A5.01,5.01,0,0,1,603.174,558Zm-15.427,48.025V589.783c0-.163-.009-.326,0-.487a.971.971,0,0,1,1.939-.026,4.662,4.662,0,0,1,.008.487v16.258h10.1q-1.172-12.7-2.344-25.344H580q-1.172,12.672-2.344,25.351Zm-21.082-.016h9.028c.357-3.875.711-7.717,1.069-11.611-.944,0-1.8.012-2.663,0a1,1,0,0,1-1.082-1.008.982.982,0,0,1,1.091-.937c.569-.009,1.139,0,1.708,0,1.094,0,1.115,0,1.22-1.09.323-3.351.629-6.7.937-10.057.02-.2,0-.406,0-.616h-7.8c-.13.97-.26,1.915-.406,2.926h.565c.831,0,1.661-.018,2.491.014a.965.965,0,0,1-.014,1.931c-.439.018-.878,0-1.318.008h-2c-.651,4.681-1.285,9.291-1.928,13.939.974,0,1.867-.009,2.76,0a.976.976,0,1,1-.016,1.946c-.99.008-1.979,0-3.01,0C567.087,602.981,566.88,604.481,566.665,606.009Zm43.214-6.51c-.651-4.687-1.285-9.287-1.929-13.939h-5.191a.967.967,0,0,1-1.026-1.129,1.037,1.037,0,0,1,1.164-.818h4.785c-.146-1.03-.279-1.975-.413-2.926h-7.85c.307,3.342.613,6.652.922,10h.529c.927,0,1.855-.01,2.782.013a.911.911,0,0,1,.911.892.932.932,0,0,1-.79,1.013,3.405,3.405,0,0,1-.632.034h-2.626c.417,4.5.827,8.945,1.237,13.379h9.025l-.635-4.566h-3.077c-.724,0-1.155-.363-1.163-.962-.008-.621.426-.987,1.183-.988.914-.009,1.816-.007,2.793-.007Zm-41.338-25.516h10.892c-.115-.177-.2-.312-.285-.44-.609-.865-1.185-1.755-1.844-2.579a1.039,1.039,0,0,1,.634-1.789c.018,0,.03-.051.059-.1-.613-.865-1.236-1.738-1.851-2.616a.947.947,0,0,1-.046-1.254,4.062,4.062,0,0,1,.711-.5L574,560.682l-2.89,4.131c.773,0,1.422-.01,2.069,0a.947.947,0,0,1,1.023.943.981.981,0,0,1-1.026,1c-.406.017-.815,0-1.22.01a.547.547,0,0,0-.391.12c-.539.725-1.055,1.467-1.624,2.268.243.013.4.027.559.027h2.539c.691.008,1.117.376,1.131.949s-.431.987-1.137,1-1.432-.01-2.147.013a.7.7,0,0,0-.484.223C569.777,572.207,569.192,573.063,568.541,573.983Zm25.641.01c-.141-.208-.228-.342-.322-.474-.638-.9-1.284-1.8-1.914-2.709a.967.967,0,0,1,.286-1.5,3.987,3.987,0,0,1,.521-.169c-.109-.167-.194-.3-.286-.431-.534-.758-1.078-1.509-1.6-2.272a.965.965,0,0,1,.534-1.609,1.9,1.9,0,0,0,.174-.083l-2.85-4.063c-.974,1.392-1.9,2.722-2.888,4.131.781,0,1.432-.012,2.083,0a.944.944,0,0,1,1.009.957.964.964,0,0,1-.995.984c-.423.021-.846,0-1.269.01-.122,0-.3.016-.354.094-.546.736-1.07,1.486-1.667,2.325,1.13,0,2.134-.009,3.139,0a.981.981,0,1,1,0,1.945c-.677.013-1.367.018-2.051,0a.742.742,0,0,0-.723.365c-.487.73-1.009,1.432-1.514,2.156a3.716,3.716,0,0,0-.187.34Zm14.744,0c-.781-1.113-1.522-2.143-2.247-3.181a.956.956,0,0,1,.078-1.359,3.7,3.7,0,0,1,.723-.348q-.879-1.239-1.763-2.489c-.634-.9-.465-1.473.583-1.874-.941-1.346-1.877-2.683-2.842-4.061l-2.888,4.132c.781,0,1.432-.013,2.095,0a.951.951,0,0,1,1,.911.988.988,0,0,1-.958,1.021,4.874,4.874,0,0,1-.975,0,.96.96,0,0,0-1.025.534c-.391.624-.838,1.2-1.329,1.9h3.048a1.837,1.837,0,0,1,.621.091.935.935,0,0,1,.556,1.032.911.911,0,0,1-.9.8c-.781.033-1.562,0-2.344.034a.817.817,0,0,0-.549.284c-.559.74-1.082,1.5-1.615,2.263a2.123,2.123,0,0,0-.139.293ZM587.727,576H574.99v2.674h12.737Zm14.731,0h-12.72v2.681h12.72Z" transform="translate(-564.581 -558)" fill="#fff"/>
          <path id="Path_24964" data-name="Path 24964" d="M744.485,758.537a.973.973,0,1,1-1-.967.991.991,0,0,1,1,.967Z" transform="translate(-719.37 -731.586)" fill="#fff"/>
        </g>
      </g>
      <text id="_20_acers" data-name="20 acers" transform="translate(715 643)" fill="#fff" font-size="14" font-family="SofiaPro-Regular, Sofia Pro"><tspan x="0" y="0">20 acers</tspan></text>
    </g>
  </g>
</svg>
