<svg xmlns="http://www.w3.org/2000/svg" width="56" height="56" viewBox="0 0 56 56">
  <g id="Common_Water_Storage" data-name="Common Water Storage" transform="translate(-4392 -3461)">
    <rect id="Rectangle_5946" data-name="Rectangle 5946" width="56" height="56" transform="translate(4392 3461)" fill="rgba(255,255,255,0)"/>
    <g id="tank" transform="translate(4397.536 3461.02)">
      <path id="Path_25161" data-name="Path 25161" d="M570,497.893a3.967,3.967,0,0,1,3.16-3.72c.047-.01.085-.061.127-.093h30.081a4.365,4.365,0,0,1,2.692,3.422c.044.219.047.438-.236.53a3.521,3.521,0,0,1-.87.055H571.046C570.688,498.084,570.305,498.184,570,497.893Z" transform="translate(-567.275 -494.1)" fill="#ddebf0"/>
      <path id="Path_25162" data-name="Path 25162" d="M866.376,861.264a1.325,1.325,0,0,1-.612-.853q-1.647-6.157-3.32-12.31a1.364,1.364,0,0,1-.022-.162c-.188-.473.241-.605.48-.793,1.28-1.005,2.572-2,3.861-2.992a7.389,7.389,0,0,1,.6-.468c.156-.1.3-.29.527-.132q.766,6.965,1.523,13.929c.092.849.149,1.7.268,2.548a1.15,1.15,0,0,1-.461,1.234Z" transform="translate(-827.665 -805.287)" fill="#537982"/>
      <path id="Path_25163" data-name="Path 25163" d="M581.473,849.617q-1.682,6.2-3.356,12.407a1.592,1.592,0,0,1-.583.935h-2.844a1.127,1.127,0,0,1-.519-1.258c.372-3.273.719-6.551,1.073-9.826l.672-6.19c.126-.495.383-.245.589-.086.921.707,1.844,1.41,2.759,2.125.572.447,1.143.894,1.719,1.336C581.181,849.209,581.41,849.34,581.473,849.617Z" transform="translate(-570.974 -806.979)" fill="#537982"/>
      <path id="Path_25164" data-name="Path 25164" d="M877.563,497.945a4.542,4.542,0,0,0-2.133-3.469c-.164-.109-.319-.23-.479-.346H877.9a4.645,4.645,0,0,1,2.539,1.823,5.031,5.031,0,0,1,.641,2A7.874,7.874,0,0,1,877.563,497.945Z" transform="translate(-838.863 -494.145)" fill="#a7d2d7"/>
      <path id="Path_25165" data-name="Path 25165" d="M561.583,590.792a3.528,3.528,0,0,1-1.323-2.908q-.012-13.106,0-26.215c0-.893,0-.894-.907-.943a.421.421,0,0,1-.3-.1.7.7,0,0,1,.6-.188q1.933-.016,3.866,0a.985.985,0,0,1,.575.131,1.58,1.58,0,0,1,.165,1.055q.006,11.97,0,23.939a6.592,6.592,0,0,0,.022.819.675.675,0,0,0,.647.687c.438.025.6-.28.687-.642a3.125,3.125,0,0,0,.043-.708c0-.929-.017-1.86.011-2.788.016-.573.152-.717.724-.723q2.979-.03,5.957,0c.607,0,.743.145.759.748.024.91,0,1.822.009,2.735a2.907,2.907,0,0,0,.074.814c.1.342.277.61.685.567a.673.673,0,0,0,.614-.656,6,6,0,0,0,.025-.818V561.719a1.67,1.67,0,0,1,.147-1.01,1.048,1.048,0,0,1,.685-.126h20.111c.875,0,.95.076.95,1.04V585.78c0,.729.022,1.457-.008,2.188a3.731,3.731,0,0,1-1.193,2.781.732.732,0,0,1-.2.084,8.63,8.63,0,0,1-1.094.05H562.768a6.153,6.153,0,0,1-1.186-.092Z" transform="translate(-557.523 -553.196)" fill="#ddebf0"/>
      <path id="Path_25166" data-name="Path 25166" d="M582.2,837.085c.129-.149.305-.092.462-.092h32.988c.007.247-.207.328-.356.438-4.721,3.666-9.452,7.32-14.159,11.006a.835.835,0,0,1-.237.135,1.039,1.039,0,0,1-.184.041c-1.087.04-2.175.014-3.261.016a.844.844,0,0,1-.613-.17l-8.205-6.345c-1.7-1.321-3.41-2.637-5.106-3.967-.195-.153-.318-.219-.451.035C583.138,837.544,582.516,837.436,582.2,837.085Z" transform="translate(-578.14 -799.489)" fill="#8db9c4"/>
      <path id="Path_25167" data-name="Path 25167" d="M551.6,532.594l-5.061-.021a1.848,1.848,0,0,1-1.517-2,1.829,1.829,0,0,1,1.962-1.63c.254,0,.507-.009.759-.014.146.005.291.015.438.015h35.1c.147,0,.292-.007.438-.011l3.519,0c.328,0,.656-.009.978.008a1.86,1.86,0,0,1,1.74,1.815,1.793,1.793,0,0,1-1.73,1.8,17.168,17.168,0,0,1-4.017.14c-1.292-.13-2.578-.088-3.865-.091q-9.04-.022-18.081,0a9.229,9.229,0,0,1-1.844.149c-2.35-.054-4.7-.044-7.048,0A7.462,7.462,0,0,1,551.6,532.594Z" transform="translate(-545.02 -525.137)" fill="#8db9c4"/>
      <path id="Path_25168" data-name="Path 25168" d="M701.671,562.08c.164-.007.328-.02.491-.02H727.31c.146,0,.291.01.438.014a.5.5,0,0,1-.144.072c-.859.109-.859.109-.859,1v26.109a3.661,3.661,0,0,1-1.32,2.977,19.605,19.605,0,0,1-2.835.061.521.521,0,0,1-.438-.172,4.678,4.678,0,0,0,1.114-3.315q-.034-12.974,0-25.948c0-.53-.1-.71-.678-.708-6.956.023-13.911.016-20.867.017A.079.079,0,0,1,701.671,562.08Z" transform="translate(-684.539 -554.643)" fill="#a7d2d7"/>
      <path id="Path_25169" data-name="Path 25169" d="M768.806,836.86q1.382,0,2.763.02c.174,0,.365-.065.514.091-.2.244-.556.337-.656.675a10.723,10.723,0,0,0-1.91,1.4c-1.1.841-2.188,1.706-3.3,2.55a.509.509,0,0,0-.258.438c-.185-.219-.311-.045-.452.066l-8.065,6.26a.594.594,0,0,1-.394.16q-1.3.043-2.6,0a.5.5,0,0,1-.389-.164,9.518,9.518,0,0,1,1.7-1.416c2.735-2.139,5.487-4.26,8.232-6.389q2.358-1.828,4.714-3.662A.814.814,0,0,1,768.806,836.86Z" transform="translate(-731.199 -799.38)" fill="#7ca0b0"/>
      <path id="Path_25170" data-name="Path 25170" d="M715.872,941.94l4.037.009a.96.96,0,0,1,.177.719c.007.616.012,1.233,0,1.849-.008.4.164.529.552.547.457.018.946-.15,1.365.175-.17.158-.379.1-.571.1-1.124,0-2.247-.015-3.371,0a1.951,1.951,0,0,1-2.2-2.2C715.9,942.74,715.872,942.338,715.872,941.94Z" transform="translate(-697.175 -892.964)" fill="#ddebf0"/>
      <path id="Path_25171" data-name="Path 25171" d="M755.02,945.217c-.547,0-1.085-.024-1.627,0-.354.013-.474-.109-.466-.465.018-.94,0-1.879,0-2.819l.121-.013h3.385c0,.527.009,1.056-.005,1.583A1.782,1.782,0,0,1,755.02,945.217Z" transform="translate(-730.19 -892.946)" fill="#a7d2d7"/>
      <path id="Path_25172" data-name="Path 25172" d="M615.648,562.207a.23.23,0,0,0,.043.091l-.009,20.56v5.084a.867.867,0,0,1-.475.854.8.8,0,0,1-.831-.041,1.025,1.025,0,0,1-.4-.962c-.005-.857,0-1.713,0-2.57,0-1.282,0-1.282-1.272-1.282-1.8,0-3.61.01-5.412-.009-.383,0-.5.109-.492.491.024,1.094.007,2.188.01,3.282a1.571,1.571,0,0,1-.109.7.781.781,0,0,1-.731.482.808.808,0,0,1-.79-.481,1.241,1.241,0,0,1-.092-.586V562.5c0-.091.009-.182.013-.272a6.167,6.167,0,0,1,1.7.071c.245.208.194.5.2.766.009,1.2,0,2.4,0,3.6,0,.673.04.712.709.713q2.672.007,5.343,0c.664,0,.7-.04.7-.718.005-1.2,0-2.4.007-3.6,0-.264-.056-.556.206-.754A6.576,6.576,0,0,1,615.648,562.207Z" transform="translate(-598.516 -554.77)" fill="#fe9738"/>
      <path id="Path_25173" data-name="Path 25173" d="M627.89,562.258c0,1.6-.01,3.2,0,4.8,0,.351-.1.472-.458.469q-3.135-.021-6.272,0c-.37,0-.454-.129-.451-.473.014-1.6.007-3.2.008-4.8.133-.128.3-.1.463-.1h6.242A.632.632,0,0,1,627.89,562.258Z" transform="translate(-612.437 -554.726)" fill="#ddebf0"/>
      <path id="Path_25174" data-name="Path 25174" d="M624.32,632.421c-1.056,0-2.111-.011-3.173.007-.328,0-.438-.1-.438-.438q.021-2.376,0-4.752c0-.328.1-.438.438-.438q3.167.02,6.335,0c.3,0,.415.091.412.4-.012,1.6-.015,3.205,0,4.807,0,.365-.162.411-.463.408C626.4,632.414,625.358,632.421,624.32,632.421Z" transform="translate(-612.437 -612.3)" fill="#ddebf0"/>
      <path id="Path_25175" data-name="Path 25175" d="M624.335,699.454c-1.038,0-2.079-.01-3.114.005-.328,0-.487-.061-.482-.443q.029-2.376,0-4.752c0-.347.122-.427.445-.424q3.14.016,6.281,0c.365,0,.459.124.456.473q-.023,2.349,0,4.7c0,.372-.131.46-.476.454C626.411,699.442,625.372,699.454,624.335,699.454Z" transform="translate(-612.463 -672.006)" fill="#ddebf0"/>
    </g>
  </g>
</svg>
