<svg xmlns="http://www.w3.org/2000/svg" width="56" height="56" viewBox="0 0 56 56">
  <g id="Fruit_Plantation" data-name="Fruit Plantation" transform="translate(-4179 -3342)">
    <rect id="Rectangle_5942" data-name="Rectangle 5942" width="56" height="56" transform="translate(4179 3342)" fill="rgba(255,255,255,0)"/>
    <g id="fruit-tree" transform="translate(4180.791 3342.033)">
      <path id="Path_25025" data-name="Path 25025" d="M660,662.452c0-.451.013-.9.02-1.354,0-.4.248-.537.59-.611.782-.167,1.6-.065,2.37-.31.382.015.7.254,1.077.3a2.653,2.653,0,0,0,2.359-.788c.129-.134.23-.3.426-.352a9.151,9.151,0,0,1,2.606.314,2.925,2.925,0,0,1,2.2,1.858,8.429,8.429,0,0,1,1.338-2.1c.15-.175.268-.429.578-.345a1.293,1.293,0,0,1,.119.761,2.568,2.568,0,0,0,4.354,1.757,2.385,2.385,0,0,0,.612-2.681,2.7,2.7,0,0,0-1.413-1.527c-.15-.068-.336-.1-.345-.317.15-.328.484-.312.764-.387a7.071,7.071,0,0,1,1.5-.164,4.822,4.822,0,0,0,2.585.316,6.8,6.8,0,0,1,2.093.936.9.9,0,0,0,1.166,0,7.2,7.2,0,0,1,5.546-.96,1.531,1.531,0,0,1,.958.42.647.647,0,0,1-.143.685,6.777,6.777,0,0,1-2.034,3.083c-.2.182-.424.084-.64.03a6.16,6.16,0,0,0-7.783,6.169c.009.85.012.862-.81,1.019a6.783,6.783,0,0,0-1.941.734c-.656.348-.664.333-1.071-.263a5.219,5.219,0,0,0-4.664-2.459,5.14,5.14,0,0,0-3.06,1.142c-.176.135-.322.323-.572.331a1.7,1.7,0,0,0-.77.107,6.375,6.375,0,0,1-3.539-.036,6.585,6.585,0,0,1-3.912-3.274A3.809,3.809,0,0,1,660,662.452Z" transform="translate(-647.34 -642.611)" fill="#44843b"/>
      <path id="Path_25026" data-name="Path 25026" d="M689.457,768.024a6.273,6.273,0,0,1-2.007-1.73,2.14,2.14,0,0,0-.384.683,5.119,5.119,0,0,1-1.735,2.176,7.309,7.309,0,0,1-2.848,1.386,5.809,5.809,0,0,1-1.663.2.8.8,0,0,0-.858.486,9.25,9.25,0,0,1-.931,1.258,6.707,6.707,0,0,1-5.448,1.848,6.782,6.782,0,0,1-4.731-3.249c-.26-.488-.525-.087-.788,0a6,6,0,0,1-3.521.492,7.716,7.716,0,0,1-2.784-.969,10.117,10.117,0,0,1-1.726-1.84,6.4,6.4,0,0,1-.916-5.062c.063-.293.069-.65.427-.8.2.107.233.327.329.506a6.034,6.034,0,0,0,5.468,3.431c.412.011.826,0,1.238,0a3.988,3.988,0,0,0,2.147-.379.4.4,0,0,1,.435.182,7.109,7.109,0,0,0,2.505,2.329.542.542,0,0,1,.15.164,3.216,3.216,0,0,0,1.228,1.828,2.588,2.588,0,0,0,3.829-1.262,4.413,4.413,0,0,1,.221-.579,1.806,1.806,0,0,1,.569-.451,5.878,5.878,0,0,0,2.129-2.2.984.984,0,0,1,.971-.53,6.862,6.862,0,0,0,6.186-3.611c.442-.73.432-.736,1.041-.1.065.068.134.131.194.2a4.8,4.8,0,0,0,.957,1.222,3.278,3.278,0,0,0,2.24.487,9.954,9.954,0,0,0,2.784-.2,6.247,6.247,0,0,0,3.826-3.081c.1-.178.1-.525.477-.4a6.28,6.28,0,0,1-4.335,8.157,2.959,2.959,0,0,1-1.772.345,6.85,6.85,0,0,1-2.437-.548A.781.781,0,0,1,689.457,768.024Z" transform="translate(-646.452 -730.898)" fill="#44843b"/>
      <path id="Path_25027" data-name="Path 25027" d="M630.156,578.825a4.482,4.482,0,0,1,3.148-5.746,1.239,1.239,0,0,1,.438-.09c.752.125.7-.337.7-.858a4.465,4.465,0,0,1,5.888-4.363c.342.108.475.017.665-.254a6.261,6.261,0,0,1,7.735-2.129.636.636,0,0,0,.752-.1,6.306,6.306,0,0,1,10.043,3.4,8.177,8.177,0,0,1,.177,2.12,3.842,3.842,0,0,0-.3.74c-.438.427-.465.427-.822-.1a6.016,6.016,0,0,0-5.372-2.838,5.529,5.529,0,0,0-3.4,1.166,1.168,1.168,0,0,1-1.339.2,4.975,4.975,0,0,0-1.965-.444.706.706,0,0,1-.433-.241,2.529,2.529,0,0,0-4.1.946c-.03.069-.054.14-.081.211-.131.262-.06.563-.167.831a1.786,1.786,0,0,1-.15.241,1.467,1.467,0,0,1-1.872.805,4.2,4.2,0,0,0-4.965,3.179c-.071.257-.038.588-.4.677-.5-.208-.492-.691-.6-1.109-.041-.15,0-.412-.217-.385-.248.032-.159.289-.15.463.02.451.334.826.361,1.279-.056.256-.274.342-.477.426a8.125,8.125,0,0,0-2.627,1.744C630.5,578.723,630.379,578.889,630.156,578.825Z" transform="translate(-621.773 -563.95)" fill="#7bc14f"/>
      <path id="Path_25028" data-name="Path 25028" d="M632.357,708.182a6.042,6.042,0,0,0,.828,6.071,4.317,4.317,0,0,0,1.131,1.153.558.558,0,0,1,.31.442c.093.256-.12.37-.248.513a3.993,3.993,0,0,1-1.595,1.119c-.584.151-1.141.527-1.775.2a4.68,4.68,0,0,1-2.107-.509,3.048,3.048,0,0,1-1.971-2.007,4.139,4.139,0,0,1,1.538-2.4.709.709,0,0,0,.232-.96,6.9,6.9,0,0,1-.576-2.826,3.193,3.193,0,0,0,.939-2.3,1.873,1.873,0,0,0-.163-.7c-.048-.212-.238-.393-.15-.638a1.7,1.7,0,0,1,.62-.248,2.643,2.643,0,0,0,1.815-2.242,1.051,1.051,0,0,0,0-.337c-.018-.126-.02-.292-.2-.277-.135.012-.128.158-.164.262-.075.217.119.56-.287.626a23.209,23.209,0,0,1-1.872-4.275c-.077-.226-.2-.46-.024-.7a3.468,3.468,0,0,1,3.273-2.144,16.3,16.3,0,0,0,.68,2.04c-.11.33-.436.451-.656.673a2.447,2.447,0,0,0-.57,2.788,2.552,2.552,0,0,0,4.63.178c.105-.172.134-.4.346-.495.477.077.952.182,1.432.223a6.458,6.458,0,0,0,2.541-.326c.15-.048.369-.229.418.119.036.218-.122.345-.236.486a5.1,5.1,0,0,0-1.044,2.091c-.047.209-.062.462-.343.53a6.639,6.639,0,0,0-3.995.813,5.608,5.608,0,0,0-2.3,2.367C632.675,707.735,632.612,708.026,632.357,708.182Z" transform="translate(-619.252 -676.168)" fill="#233d1b"/>
      <path id="Path_25029" data-name="Path 25029" d="M706.962,694.042a14.759,14.759,0,0,1,.688-1.819,7.562,7.562,0,0,1,.9-1.2,5.344,5.344,0,0,1,6.947-.584,4.764,4.764,0,0,1,1.5,1.643c.173.323.293.436.662.2a5.853,5.853,0,0,1,2.459-.912c.351-.045.4-.15.384-.491a6.32,6.32,0,0,1,4.842-6.688,6.16,6.16,0,0,1,3.16.068c.179.051.366.072.548.107a.513.513,0,0,0,.648.087,4.936,4.936,0,0,1,6.95,3.631,3.609,3.609,0,0,1-.15,2.257c-.2-.111-.238-.328-.32-.513a4.772,4.772,0,0,0-6.279-2.567,1.292,1.292,0,0,1-.925.03,2.492,2.492,0,0,0-1.195-.265,3.657,3.657,0,0,0-1.976,0,2.189,2.189,0,0,0-1.142.242,6.15,6.15,0,0,0-4.035,6c.012.858.014.871-.812,1.02a6.82,6.82,0,0,0-1.943.734c-.656.343-.662.33-1.071-.271a5.222,5.222,0,0,0-4.506-2.453,5.3,5.3,0,0,0-4.947,3.692c-.072.239-.089.665-.349.623-.319-.054-.212-.475-.2-.736C706.866,695.258,706.661,694.629,706.962,694.042Z" transform="translate(-687.085 -665.972)" fill="#8ddf5b"/>
      <path id="Path_25030" data-name="Path 25030" d="M694.952,830.7a5.709,5.709,0,0,0,3.032-.293c.193-.066.39-.125.585-.187a.488.488,0,0,1,.17.4,19.62,19.62,0,0,1-.045,2.741c-.1.265-.343.25-.564.281-.7.1-1.053.384-1.174.946a1.606,1.606,0,0,0,.584,1.806,6.635,6.635,0,0,0,.646.343c1.73.865,3.461,1.744,5.194,2.585a1.52,1.52,0,0,1,.919,1.177q.194,1.053.421,2.107a1.727,1.727,0,0,0,1.926,1.574,1.95,1.95,0,0,1,1.1.128,17.381,17.381,0,0,1,.764,1.806c-.2.009-.352.023-.509.024-2.063,0-4.126-.017-6.189.014-.465,0-.543-.151-.537-.564.021-1.763,0-3.527.018-5.29,0-.36-.095-.554-.438-.651a5.621,5.621,0,0,1-.567-.241A11.245,11.245,0,0,1,696.1,837a4.157,4.157,0,0,1-1.178-2.271,19.609,19.609,0,0,1-.1-3.71A.42.42,0,0,1,694.952,830.7Z" transform="translate(-676.895 -790.184)" fill="#714226"/>
      <path id="Path_25031" data-name="Path 25031" d="M814.385,619.55a6.865,6.865,0,0,0-6.47.7.813.813,0,0,1-1.122,0,11.483,11.483,0,0,0-2.093-1.037c0-.265.232-.314.39-.423a2.551,2.551,0,0,0,1.067-2.877c-.051-.268-.3-.483-.208-.79a.638.638,0,0,1,.3-.15,2.67,2.67,0,0,0,2.132-2.4c.024-.162.018-.343.169-.462a6.463,6.463,0,0,1,4.994,2.922.753.753,0,0,1,.322.3,6.335,6.335,0,0,1,.77,3.679A.7.7,0,0,1,814.385,619.55Z" transform="translate(-770.273 -604.892)" fill="#52a147"/>
      <path id="Path_25032" data-name="Path 25032" d="M842.254,702.161c.46-.2.819.138,1.217.245a1.217,1.217,0,0,0,.852-.051,4.783,4.783,0,0,1,4.913.67,4.594,4.594,0,0,1,1.711,2.558,7.91,7.91,0,0,1-.591,1.464,1.416,1.416,0,0,0-.3.767,2.3,2.3,0,0,1-1.115,1.741,1.616,1.616,0,0,1-2.2-.242,2.568,2.568,0,0,1-.785-1.521c-.027-.173.042-.469-.182-.469-.278,0-.191.313-.221.5a2.44,2.44,0,0,1-.9,1.577,1.663,1.663,0,0,1-2.307,0,1.891,1.891,0,0,1-.817-2.007,1.324,1.324,0,0,1,.545-.265,2.5,2.5,0,0,0,1.625-3.13,2.849,2.849,0,0,0-1.086-1.5C842.488,702.385,842.311,702.338,842.254,702.161Z" transform="translate(-801.508 -681.22)" fill="#7bc14f"/>
      <path id="Path_25033" data-name="Path 25033" d="M609.5,708.2a18.2,18.2,0,0,0,1.733,4.342,1.067,1.067,0,0,1,.188.623.322.322,0,0,1-.054.451c-.611.476-.966,1.371-1.956,1.232a2.427,2.427,0,0,1-1.806-1.816c-.065-.25.087-.7-.256-.7-.272,0-.15.438-.22.679a2.359,2.359,0,0,1-1.756,1.806c-.363.093-.752.135-.975-.3a1.582,1.582,0,0,1,1.138-.837c.468-.134.495-.346.272-.725a6.578,6.578,0,0,1-.811-2.615,2.823,2.823,0,0,1,.34-2,4.345,4.345,0,0,1,3.62-.194C609.123,708.214,609.3,708.415,609.5,708.2Z" transform="translate(-600.111 -686.216)" fill="#2f5224"/>
      <path id="Path_25034" data-name="Path 25034" d="M718.958,862.7c-.394,0-.787.018-1.181.018a1.852,1.852,0,0,1-2.009-1.7c-.141-.752-.311-1.5-.451-2.257a1.053,1.053,0,0,0-.644-.832c-1.974-.961-3.927-1.956-5.9-2.933-.82-.4-.84-1.121-.791-1.872a1.25,1.25,0,0,1,.838-1.156,3.2,3.2,0,0,1,.945-.087c.194.15.15.366.164.563a1.7,1.7,0,0,0,1.1,1.593c.707.259,1.363.632,2.066.9.8.414,1.655.7,2.469,1.068a1.968,1.968,0,0,1,.587.319,20.343,20.343,0,0,1,1.2,2.257c.235.442.441.9.7,1.329-.166.176-.041.342.023.506Q718.506,861.565,718.958,862.7Z" transform="translate(-688.097 -808.585)" fill="#996948"/>
      <path id="Path_25035" data-name="Path 25035" d="M580.439,752.58a3.306,3.306,0,0,1-1.682-2.859.8.8,0,0,0-.451-.778,4.329,4.329,0,0,1-2.242-4.436,4.2,4.2,0,0,1,2.567-3.548l.041.069a2.151,2.151,0,0,0,.855,1.788c.164.141.39.236.391.506a3.592,3.592,0,0,0,.117,3.343,2.407,2.407,0,0,0,1.053.982c.247.122.387.286.283.581a11.091,11.091,0,0,0-.791,4.052A.369.369,0,0,1,580.439,752.58Z" transform="translate(-576.01 -714.354)" fill="#39632c"/>
      <path id="Path_25036" data-name="Path 25036" d="M599.445,765.41a10.027,10.027,0,0,1,.784-4.363c.084-.22.084-.3-.161-.4-1.756-.712-2.07-3.461-1.192-4.579a1.888,1.888,0,0,1,1.127.3c.1.247-.1.429-.143.645a2.513,2.513,0,0,0,.623,2.725,2.593,2.593,0,0,0,2.815.5c.214-.083.388-.308.661-.194a10.2,10.2,0,0,0,.788,3.122c.15.318-.029.421-.232.581a4.273,4.273,0,0,0-1.694,2.489,1.655,1.655,0,0,0-1.112-.14,2.251,2.251,0,0,1-1.89-.424Z" transform="translate(-595.016 -727.185)" fill="#2f5224"/>
      <path id="Path_25037" data-name="Path 25037" d="M763.945,838.361c-.256-.026-.3-.248-.39-.426q-.781-1.539-1.556-3.085c.086-.277.342-.328.561-.418.752-.313,1.526-.615,2.289-.922a1.937,1.937,0,0,0,1.5-2.206v-2.019a1.416,1.416,0,0,1,.143-.761,18,18,0,0,0,1.136-1.655c.105-.218.325-.15.5-.15a6.226,6.226,0,0,0,1.878-.218.558.558,0,0,1,.265.566,4.869,4.869,0,0,1-.063,1.369c-.117.233-.366.236-.57.311a1.643,1.643,0,0,0-1.177,1.6,8.4,8.4,0,0,0,0,.954,3.135,3.135,0,0,1-1.389,2.839c-.268.2-.54.4-.8.6a1.667,1.667,0,0,0-.643,1.982c.056.194.172.379.1.6a13.8,13.8,0,0,1-1.783,1.032Z" transform="translate(-733.998 -787.024)" fill="#714226"/>
      <path id="Path_25038" data-name="Path 25038" d="M631.61,649.514a12.14,12.14,0,0,1,3.51-2.388.325.325,0,0,1,.287.138,3.149,3.149,0,0,0,2.407,1.1.551.551,0,0,1,.316.093c.125.31-.14.527-.19.8a2.576,2.576,0,0,0,.679,2.591c.134.15.361.227.331.484a12.54,12.54,0,0,1-2.415.331.752.752,0,0,0-.621.462c.056-.364-.107-.442-.46-.463A4.4,4.4,0,0,1,631.61,649.514Z" transform="translate(-623.227 -634.639)" fill="#52a047"/>
      <path id="Path_25039" data-name="Path 25039" d="M881.5,740.791c-.451.376-.593.96-.955,1.405a6.185,6.185,0,0,1-4.794,2.431c-.451.014-.9-.008-1.354-.012.03-.266.277-.275.451-.366a2.5,2.5,0,0,0,1.326-3.057c-.059-.248-.217-.482-.107-.752a.863.863,0,0,1,.439-.233,2.657,2.657,0,0,0,1.926-2.383c.021-.184-.01-.382.151-.524A5.978,5.978,0,0,1,881.5,740.791Z" transform="translate(-829.486 -711.245)" fill="#5cb24f"/>
      <path id="Path_25040" data-name="Path 25040" d="M784.729,848.763c-.65-1.3-.451-2.058.752-2.924a3.737,3.737,0,0,0,1.775-2.144,8.7,8.7,0,0,0,.06-1.789,1.794,1.794,0,0,1,1.791-1.956c.366.531.126,1.127.188,1.691-.053.641.17,1.3-.17,1.918a5.583,5.583,0,0,1-3.118,4.5C785.573,848.286,785.153,848.534,784.729,848.763Z" transform="translate(-752.997 -798.45)" fill="#996948"/>
      <path id="Path_25041" data-name="Path 25041" d="M858.43,810.88a6.771,6.771,0,0,0,4.678.576,3.715,3.715,0,0,1,.12,1.607,2.637,2.637,0,0,1-2.189,2.138,2.532,2.532,0,0,1-2.684-1.128,2.567,2.567,0,0,1-.074-2.957C858.323,811.036,858.38,810.958,858.43,810.88Z" transform="translate(-815.425 -773.754)" fill="#d57c16"/>
      <path id="Path_25042" data-name="Path 25042" d="M816,812.949v-1.933a3.235,3.235,0,0,1,1.473-.873,1.581,1.581,0,0,0,1.094-1.773,6.441,6.441,0,0,1,.107-2.386,8.357,8.357,0,0,0,1.806-2.064c0,1.784.026,3.569,0,5.352a2.233,2.233,0,0,1-.867,1.825A14,14,0,0,1,816,812.949Z" transform="translate(-779.873 -767.841)" fill="#5d241d"/>
      <path id="Path_25043" data-name="Path 25043" d="M660.359,841.218a8.014,8.014,0,0,0,1.019,2.147,2.083,2.083,0,0,1-1.143-.2c-1.338-.588-2.666-1.2-4.034-1.714a3.082,3.082,0,0,1-2.277-3.378,5.4,5.4,0,0,0,1.806-.346c.2.2.15.451.15.689a1.032,1.032,0,0,0,.688,1.041c1.077.466,2.161.918,3.23,1.4a1.432,1.432,0,0,1,.561.357Z" transform="translate(-642.173 -796.564)" fill="#5d241d"/>
      <path id="Path_25044" data-name="Path 25044" d="M606.341,819.82a3.805,3.805,0,0,0,2.516.166c.4-.135.286.314.486.4a3.36,3.36,0,0,0,1.315,1.577c.172.135.354.262.53.391a2.756,2.756,0,0,1-2.806,1.363,2.7,2.7,0,0,1-2.164-3.524C606.255,820.067,606.3,819.943,606.341,819.82Z" transform="translate(-601.537 -781.349)" fill="#d57c16"/>
      <path id="Path_25045" data-name="Path 25045" d="M864.3,634.787a6.3,6.3,0,0,0-.846-4.529,2.567,2.567,0,0,1,2.972.683,2.686,2.686,0,0,1,.451,2.987,2.645,2.645,0,0,1-2.663,1.5C864.237,635.216,864.266,635,864.3,634.787Z" transform="translate(-820.184 -620.128)" fill="#feb646"/>
      <path id="Path_25046" data-name="Path 25046" d="M595.892,711.21a6.062,6.062,0,0,0,.793,4.881c.15.263.114.442-.185.494a2.989,2.989,0,0,0-1.514.8c-.694-.038-.928-.585-1.183-1.092-.117-.235-.187-.489-.48-.566l-.033-.041c.259-.481.069-1.02.218-1.529A4.49,4.49,0,0,1,595.892,711.21Z" transform="translate(-590.673 -689.081)" fill="#39632c"/>
      <path id="Path_25047" data-name="Path 25047" d="M774.658,609.6a2.847,2.847,0,0,1-2.585,3.054c-.253.212-.512.051-.769.012a2.049,2.049,0,0,1-.539-.26,2.076,2.076,0,0,1-.56-.466c-.269-.363-.483-.358-.8-.021a2.656,2.656,0,0,1-1.9.865,3.01,3.01,0,0,1-1.524-.587,2.9,2.9,0,0,1-1.177-2.326c0-.333.038-.685.474-.7.4-.009.466.31.491.627a2.106,2.106,0,0,0,.784,1.565,1.418,1.418,0,0,0,1.991-.012,2.106,2.106,0,0,0,.769-1.572c.021-.322.1-.623.5-.6.366.012.439.3.46.6a2.22,2.22,0,0,0,.241.919,1.85,1.85,0,0,0,1.536,1.091,1.7,1.7,0,0,0,1.5-1.031c.15-.254.254-.542.387-.811.047-.269-.047-.612.366-.689A.414.414,0,0,1,774.658,609.6Z" transform="translate(-736.385 -602.402)" fill="#233d1b"/>
      <path id="Path_25048" data-name="Path 25048" d="M846.581,735.968a2.9,2.9,0,0,1-2.516,3.175c-.281.217-.561.041-.843,0a2.013,2.013,0,0,1-.527-.257c-.375-.22-.6-.736-.942-.812-.3-.068-.519.542-.889.728a2.61,2.61,0,0,1-4.082-1.947c-.053-.29-.128-.594.126-.843a.509.509,0,0,1,.638.084v.057a2.256,2.256,0,0,0,1.845,2.284,2.213,2.213,0,0,0,1.994-2.194c.015-.236.018-.483.327-.489.351,0,.354.266.351.521a2.106,2.106,0,0,0,.442,1.307,1.76,1.76,0,0,0,1.787.8,2.219,2.219,0,0,0,1.6-2.025c.014-.31-.024-.63.432-.623Z" transform="translate(-797.484 -709.919)" fill="#2f5224"/>
      <path id="Path_25049" data-name="Path 25049" d="M715.169,628.63a3.268,3.268,0,0,0,1.455.56c.083.3-.15.509-.2.77a2.667,2.667,0,0,0,.621,2.507c.107.125.349.193.247.439-.6.188-1.249.116-1.851.323-.15.048-.286.071-.376.206s-.242.075-.367.068a2.633,2.633,0,0,0-2.687,1.627c-.069.12-.128.254-.3.263a6.013,6.013,0,0,0-1.5,1.918c-.15.268-.283.554-.451.892-.381-1.6-1.6-1.944-2.878-2.257a13.241,13.241,0,0,1-1.879-.22c-.11-.188-.009-.358.053-.525a2.708,2.708,0,0,0,.075-1.623c-.056-.274-.3-.5-.208-.814a.847.847,0,0,1,.483-.113,2.906,2.906,0,0,0,2.835-3.071.518.518,0,0,1,.029-.166c.247-.211.528-.132.8-.093a5.8,5.8,0,0,1,2.389.927c.462.3.728.217,1.1-.151A6.123,6.123,0,0,1,715.169,628.63Z" transform="translate(-685.482 -618.926)" fill="#52a047"/>
      <path id="Path_25050" data-name="Path 25050" d="M659.4,712.682a2.7,2.7,0,1,1-3.741-3.152A7.187,7.187,0,0,0,659.4,712.682Z" transform="translate(-642.313 -687.654)" fill="#d57b16"/>
      <path id="Path_25051" data-name="Path 25051" d="M751.186,661.894a2.64,2.64,0,0,1,3.173-1.7,2.555,2.555,0,0,1,1.825,1.7.76.76,0,0,1-.15.688,2.806,2.806,0,0,1-4.7,0A.744.744,0,0,1,751.186,661.894Z" transform="translate(-724.78 -645.681)" fill="#d8872b"/>
      <path id="Path_25052" data-name="Path 25052" d="M750.121,671.89a2.623,2.623,0,0,0,5,0,2.654,2.654,0,0,1-2.179,3.638,2.758,2.758,0,0,1-3-3.382Z" transform="translate(-723.715 -655.677)" fill="#c6710e"/>
      <path id="Path_25053" data-name="Path 25053" d="M781,639.833a2.747,2.747,0,0,1-.966-3.047c.268-.029.328.2.442.361a2.5,2.5,0,0,0,4.269,0c.113-.151.172-.393.442-.357a2.635,2.635,0,0,1-1.005,3.009c-.184.126-.375.241-.561.361A3.245,3.245,0,0,1,781,639.833Z" transform="translate(-749.199 -625.853)" fill="#c6710e"/>
      <path id="Path_25054" data-name="Path 25054" d="M677.236,660.778a2.78,2.78,0,0,1-.232,2.257,2.73,2.73,0,0,1-5.054-1.709,1.116,1.116,0,0,1,.134-.539c.271-.029.331.208.451.366a2.5,2.5,0,0,0,4.261,0C676.912,660.985,676.965,660.751,677.236,660.778Z" transform="translate(-657.487 -646.235)" fill="#c6710e"/>
      <path id="Path_25055" data-name="Path 25055" d="M778.109,755.436l-.676-.641a12.483,12.483,0,0,1-1.308,1.909,6.939,6.939,0,0,1-5.448,2.334.65.65,0,0,0-.689.366,6.479,6.479,0,0,1-2.794,2.681c-.272-.289-.116-.691-.268-1.011-.035-.281-.277-.512-.2-.82a1.577,1.577,0,0,1,.62-.253,2.693,2.693,0,0,0,1.827-2.407c0-.163.039-.4-.164-.427-.239-.029-.2.224-.217.379a2.385,2.385,0,0,1-1.532,2.057,1.815,1.815,0,0,1-2.347-1.487,2.331,2.331,0,0,1,.865-.218,5.207,5.207,0,0,0,3.382-2.144,1.008,1.008,0,0,1,.9-.472,6.091,6.091,0,0,0,5.2-2.75c.333-.489.385-.486.819-.122a6.988,6.988,0,0,0,1.587,1.053.7.7,0,0,1,.487.569A4.43,4.43,0,0,1,778.109,755.436Z" transform="translate(-736.47 -723.859)" fill="#5cb24f"/>
      <path id="Path_25056" data-name="Path 25056" d="M663,759.265a5.847,5.847,0,0,1,2.609-3.125,6.086,6.086,0,0,0,2.859,2.913c.077.334-.191.567-.251.862a2.546,2.546,0,0,0,1.3,3.02c.181.1.451.1.491.39a7.7,7.7,0,0,1-3.522-.429A5.9,5.9,0,0,1,663,759.265Z" transform="translate(-649.894 -727.25)" fill="#5cb24f"/>
      <path id="Path_25057" data-name="Path 25057" d="M748.384,810.613a2.892,2.892,0,0,1,.15,1.125,2.744,2.744,0,0,1-4.46,1.776,2.849,2.849,0,0,1-.986-1.777,1.014,1.014,0,0,1,.029-1.092c.3-.161.4.086.516.26a2.859,2.859,0,0,0,1.109,1.005,2.487,2.487,0,0,0,3.169-.885C748.035,810.856,748.092,810.6,748.384,810.613Z" transform="translate(-717.809 -773.51)" fill="#f19d18"/>
      <path id="Path_25058" data-name="Path 25058" d="M697.964,784.1a2.847,2.847,0,0,1-1.956-2,2.3,2.3,0,0,1,.056-1.487c.268-.024.328.206.442.364a2.5,2.5,0,0,0,4.27-.011c.125-.172.2-.423.495-.369a.573.573,0,0,1,.221.475,3.169,3.169,0,0,1-.238,1.517c-.271.421-.451.93-1.022,1.064A3.325,3.325,0,0,1,697.964,784.1Z" transform="translate(-677.854 -748.022)" fill="#f19d18"/>
      <path id="Path_25059" data-name="Path 25059" d="M852.054,764.247a5.121,5.121,0,0,1-.095-1.461c.077-.074.014-.229.15-.266.242.035.31.25.427.412a2.5,2.5,0,0,0,4.213.033c.125-.17.179-.432.472-.415a2.666,2.666,0,0,1-1.395,3.256c-.167.081-.339.15-.507.227A2.844,2.844,0,0,1,852.054,764.247Z" transform="translate(-810.416 -732.671)" fill="#f19d18"/>
      <path id="Path_25060" data-name="Path 25060" d="M818.055,817.64c.009,1.053.021,2.09.024,3.134a.891.891,0,0,1-.546.843c-.716.355-1.434.7-2.152,1.053,0-.558-.017-1.118-.024-1.676a6.713,6.713,0,0,0-.087-2.016A6.382,6.382,0,0,0,818.055,817.64Z" transform="translate(-779.253 -779.497)" fill="#fefefe"/>
      <path id="Path_25061" data-name="Path 25061" d="M728.1,851.01c.15-.4.525-.432.849-.56.5-.2,1.2-.181,1.466-.593.238-.379.069-1.014.08-1.536v-.111l1.8.558c0,.54-.013,1.08,0,1.62a1.012,1.012,0,0,1-.806,1.112c-.451.134-.879.3-1.318.451A15.652,15.652,0,0,1,728.1,851.01Z" transform="translate(-705.199 -805.467)" fill="#5d241d"/>
      <path id="Path_25062" data-name="Path 25062" d="M724.61,795.155a5.072,5.072,0,0,0,.9-1.035c.182,0,.25.151.32.268a2.76,2.76,0,0,0,1.852,1.369.635.635,0,0,1,.3.15.706.706,0,0,1-.316.71c-.226.351-.089.752-.15,1.124a6.408,6.408,0,0,1-2.681-2.447A.291.291,0,0,0,724.61,795.155Z" transform="translate(-702.234 -759.516)" fill="#5cb24f"/>
      <path id="Path_25063" data-name="Path 25063" d="M676.446,599.118c-.484.379-1.094.531-1.6.868a4.42,4.42,0,0,0-1.168.946c-.259.343-.479.263-.787.062a5.56,5.56,0,0,0-3.34-1.085.593.593,0,0,1-.418.132,5.622,5.622,0,0,0-3.31,1.153c-.3.224-.542.582-.98.591-.54-.247-.582-.772-.7-1.252-.035-.14,0-.358-.178-.37-.233-.018-.191.224-.227.375-.15.62-.283,1.249-.986,1.5a1.087,1.087,0,0,1-.5-.05,4.116,4.116,0,0,0-2.168-.151,1.2,1.2,0,0,1-.614-.033c-.09-.044-.176-.092-.15-.217a.436.436,0,0,0,.226-.36,4.414,4.414,0,0,1,5.751-3.483c.322.1.51.068.694-.233a6.619,6.619,0,0,1,.64-.772c.176.12.165.325.217.5a2.6,2.6,0,0,0,3.16,1.878,2.562,2.562,0,0,0,1.816-3.19c-.054-.351-.406-.6-.333-1a1.386,1.386,0,0,1,1.168.093,2.589,2.589,0,0,0,2.585-.206,6.089,6.089,0,0,1,7.7,1.026,4.513,4.513,0,0,1,.773,1.025c.2.39.361.372.614.095a2.136,2.136,0,0,1-1.1,1.786c-1.19.752-2.632-.516-2.708-1.745v-.337c-.008-.217-.1-.367-.333-.367a.313.313,0,0,0-.333.366,2.346,2.346,0,0,1-.2,1.038,2.135,2.135,0,0,1-1.894,1.271,2.277,2.277,0,0,1-1.747-1.968v-.28c0-.23-.062-.423-.333-.427s-.336.187-.343.418A2.827,2.827,0,0,0,676.446,599.118Z" transform="translate(-646.759 -589.414)" fill="#5cb24f"/>
      <path id="Path_25064" data-name="Path 25064" d="M656.37,635.908a2.067,2.067,0,0,0,.766-1.559c.018-.241.044-.474.352-.466s.318.248.336.484a1.956,1.956,0,0,0,.546,1.311,5.927,5.927,0,0,1,.752.477,2.23,2.23,0,0,0,3.265-1.61c.045-.244-.023-.546.3-.665h.4a2.611,2.611,0,0,1-.891,2.594,3.268,3.268,0,0,1-2.451.773,2.442,2.442,0,0,1-2.087-1.127c-.122-.187-.242-.211-.363,0a2.5,2.5,0,0,1-2.107,1.125,3.261,3.261,0,0,1-3.009-1.371,3.845,3.845,0,0,1-.465-1.428c-.013-.244-.042-.531.3-.564s.361.233.379.494a1.956,1.956,0,0,0,.451,1.181l.09.122c.358.126.611.426.961.572A2.69,2.69,0,0,0,656.37,635.908Z" transform="translate(-640.306 -623.386)" fill="#233d1b"/>
      <path id="Path_25065" data-name="Path 25065" d="M713.6,595.032a3.619,3.619,0,0,1,.435.9,2.728,2.728,0,0,1-5.153,0,2.677,2.677,0,0,1,4.5-1.085A1.9,1.9,0,0,0,713.6,595.032Z" transform="translate(-688.871 -589.515)" fill="#d8882b"/>
      <path id="Path_25066" data-name="Path 25066" d="M708.047,606.82c.31.247.426.639.715.918a2.645,2.645,0,0,0,4.169-.572c.075-.128.12-.277.269-.346a2.516,2.516,0,0,1-.624,2.695,2.573,2.573,0,0,1-2.793.683,2.617,2.617,0,0,1-1.863-2.257c-.012-.074-.014-.15-.021-.223C707.951,607.423,707.856,607.1,708.047,606.82Z" transform="translate(-688.038 -600.398)" fill="#c6710e"/>
      <path id="Path_25067" data-name="Path 25067" d="M706.3,711.877c-.042.08-.086.15-.128.236-.029-.29-.292-.325-.483-.411a7.167,7.167,0,0,1-1.893-1.354,6.2,6.2,0,0,1-2.62,2.52,6.37,6.37,0,0,1-2.966.7.829.829,0,0,0-.782.412,5.371,5.371,0,0,1-4.332,2.3c-.3-.169-.238-.471-.286-.734-.02-.107-.03-.245-.161-.256-.182-.017-.187.15-.2.269a1.129,1.129,0,0,1-.22.722,3.765,3.765,0,0,1-2.225-.62,4.557,4.557,0,0,1-1.655-1.485.6.6,0,0,0-.7-.322,1.071,1.071,0,0,1-.548-.372,2.442,2.442,0,0,0-3.28-.068c-.193.159-.325.432-.644.388a4.837,4.837,0,0,1-2.758-2.477,1.313,1.313,0,0,1-.069-.436,5.814,5.814,0,0,1,4.169-.82v2.617c.287-.581.36-1.1.593-1.554a5.378,5.378,0,0,1,8.605-1.395,4.427,4.427,0,0,1,.93,1.19c.11.229.214.3.471.14a6.433,6.433,0,0,1,2.666-.984c.28-.032.31-.137.289-.4a6.366,6.366,0,0,1,1.693-4.955,6.239,6.239,0,0,1,3.334-1.855c.077-.018.173.044.26.069-.081.232-.311.3-.478.451a2.844,2.844,0,0,0-.986,1.378,2.547,2.547,0,0,0,1.617,3.127c.187.075.408.095.527.292a2.832,2.832,0,0,0,2.577,3.035.673.673,0,0,1-.313.653Z" transform="translate(-664.633 -681.994)" fill="#7bc14f"/>
      <path id="Path_25068" data-name="Path 25068" d="M592.686,736.65c.262-.164.412-.119.492.208a2.049,2.049,0,0,0,1.171,1.45,1.761,1.761,0,0,0,2.271-.825,2.114,2.114,0,0,0,.328-1.177c-.015-.244.029-.473.343-.468s.319.244.333.482a2.228,2.228,0,0,0,1.581,2.159.773.773,0,0,0,.656-.011,3.466,3.466,0,0,0,1.487-1.514c.191-.187.093-.424.105-.639s.02-.471.334-.477.336.218.349.46a2.807,2.807,0,0,1-2.589,2.908c-.248.223-.506.06-.76.021a1.956,1.956,0,0,1-.533-.257c-.376-.221-.6-.742-.945-.819-.3-.068-.51.569-.9.728-.444.184-.837.6-1.39.33a3.178,3.178,0,0,1-1.125-.333,2.709,2.709,0,0,1-1.3-1.607A.559.559,0,0,1,592.686,736.65Z" transform="translate(-590.036 -710.004)" fill="#192b13"/>
      <path id="Path_25069" data-name="Path 25069" d="M610.318,764.869A2.736,2.736,0,0,1,606,763.394a2.068,2.068,0,0,1,.125-1.633c.17.078.218.25.3.391a2.5,2.5,0,0,0,4.4,0c.086-.141.134-.314.3-.393A2.609,2.609,0,0,1,610.318,764.869Z" transform="translate(-601.376 -732.025)" fill="#c6710e"/>
      <path id="Path_25070" data-name="Path 25070" d="M612.433,750.454a2.621,2.621,0,0,1-5,0,1.1,1.1,0,0,1,.241-.53,2.664,2.664,0,0,0,2.246-1.475,4.421,4.421,0,0,0,1.053,1.154c-.114.116-.272.1-.414.134-.482.117-.579.4-.247.752a4.17,4.17,0,0,0,.737.591c.31.2.515.066.542-.319.024-.351-.275-.6-.254-.955l.859.122A1.052,1.052,0,0,1,612.433,750.454Z" transform="translate(-602.686 -720.718)" fill="#d57b16"/>
      <path id="Path_25071" data-name="Path 25071" d="M822.84,703.915a2.751,2.751,0,0,1,1.563-1.723,2.692,2.692,0,0,1,2.027,0,2.11,2.11,0,1,1-3.59,1.723Z" transform="translate(-785.684 -681.251)" fill="#feb646"/>
      <path id="Path_25072" data-name="Path 25072" d="M786.013,625.927c-.313.247-.426.639-.716.916a2.647,2.647,0,0,1-4.168-.573c-.074-.129-.12-.277-.269-.348l.3-.67a2.632,2.632,0,0,0,1.977-1.04c.188-.247.372-.317.572-.032a5.454,5.454,0,0,0,.761.739.557.557,0,0,1-.363.128c-.211.033-.417.083-.469.33-.047.214.092.355.233.482.2.174.409.328.614.492.134.107.286.209.451.089s.15-.289.15-.46c0-.3-.277-.539-.235-.856l.855.128A2,2,0,0,1,786.013,625.927Z" transform="translate(-750.021 -614.989)" fill="#d8872b"/>
      <path id="Path_25073" data-name="Path 25073" d="M822.031,714.76c.3.254.423.643.713.921a2.648,2.648,0,0,0,4.171-.572c.075-.129.12-.277.269-.348a2.706,2.706,0,0,1-2.246,3.516h-.664A2.7,2.7,0,0,1,822.031,714.76Z" transform="translate(-784.875 -692.097)" fill="#f19d18"/>
      <path id="Path_25074" data-name="Path 25074" d="M675.713,647.57a3.564,3.564,0,0,0,2.048,1.244l.3.68c-.3.253-.424.641-.715.919a2.645,2.645,0,0,1-4.168-.572c-.075-.129-.12-.277-.269-.348l.3-.68a3.529,3.529,0,0,0,2.049-1.244A.375.375,0,0,1,675.713,647.57Z" transform="translate(-658.313 -634.952)" fill="#d8872b"/>
      <path id="Path_25075" data-name="Path 25075" d="M852.85,750.481a1.865,1.865,0,0,1,.3-.667,2.69,2.69,0,0,0,2.257-1.5,3.866,3.866,0,0,0,1.044,1.166c-.128.138-.308.107-.466.15-.427.125-.5.408-.19.737a7.106,7.106,0,0,0,.689.563.355.355,0,0,0,.409.09c.173-.092.17-.268.178-.438.012-.325-.287-.567-.227-.9l.9.15.236.659c-.3.239-.4.615-.673.882a2.64,2.64,0,0,1-4.234-.581A.663.663,0,0,0,852.85,750.481Z" transform="translate(-811.179 -720.599)" fill="#feb646"/>
      <path id="Path_25076" data-name="Path 25076" d="M799.383,630.263a1.54,1.54,0,0,1,.385,1.077c-.059.48-.325.62-.721.351-.262-.177-.5-.384-.752-.584s-.426-.387-.278-.712a.628.628,0,0,1,.7-.346,2.479,2.479,0,0,1,.28.011Z" transform="translate(-764.551 -620.129)" fill="#fee5c0"/>
      <path id="Path_25077" data-name="Path 25077" d="M871.4,756.207a1.657,1.657,0,0,1,.376,1.085c-.059.472-.337.62-.727.352-.275-.19-.53-.411-.787-.624-.193-.161-.358-.343-.256-.624a.582.582,0,0,1,.6-.4H871Z" transform="translate(-825.725 -727.128)" fill="#fee6c0"/>
      <path id="Path_25078" data-name="Path 25078" d="M768.663,665.986a1.169,1.169,0,0,1,1.15,1.354c-.072.414-.33.549-.671.322a11.1,11.1,0,0,1-.88-.689.5.5,0,0,1-.19-.641A.588.588,0,0,1,768.663,665.986Z" transform="translate(-739.112 -650.659)" fill="#fee5c0"/>
      <path id="Path_25079" data-name="Path 25079" d="M734.786,784.861a1.8,1.8,0,0,0,.135-.823c0-.211.077-.378.312-.39.265-.014.364.159.358.4a1.927,1.927,0,0,0,.132.825,3.481,3.481,0,0,0,.343.636,1.674,1.674,0,0,0,1.736.779,2.234,2.234,0,0,0,1.627-1.945v-.281c0-.233.075-.418.345-.412s.313.2.333.429a2.846,2.846,0,0,1-1.982,2.818c-.2.056-.4.087-.6.131-.251.211-.51.05-.766.012a1.985,1.985,0,0,1-.533-.259c-.376-.221-.6-.742-.946-.818-.3-.066-.512.57-.9.731-.451.185-.843.6-1.4.334a3.072,3.072,0,0,1-2.457-1.837,5.4,5.4,0,0,0,.227-1.548c.444-.12.436.221.451.48a2.278,2.278,0,0,0,.539,1.38,1.549,1.549,0,0,0,2.574-.084C734.479,785.228,734.552,784.979,734.786,784.861Z" transform="translate(-707.255 -750.591)" fill="#2f5224"/>
      <path id="Path_25080" data-name="Path 25080" d="M745.151,797.785a2.673,2.673,0,0,0,2.257-1.5,3.787,3.787,0,0,0,1.043,1.166c-.128.138-.3.107-.466.15-.427.125-.5.409-.19.737a7.089,7.089,0,0,0,.689.563.358.358,0,0,0,.409.092c.173-.093.17-.269.176-.439.014-.323-.286-.567-.227-.9l.843.134a1.97,1.97,0,0,1,.3.67c-.3.238-.4.614-.673.882a2.642,2.642,0,0,1-4.234-.582.659.659,0,0,0-.239-.3A1.926,1.926,0,0,1,745.151,797.785Z" transform="translate(-719.42 -761.351)" fill="#feb646"/>
      <path id="Path_25081" data-name="Path 25081" d="M697.238,769.1a3.149,3.149,0,0,1,2.054-1.128,2.9,2.9,0,0,1,2.436,1.142.624.624,0,0,1,.33.77c-.292.242-.4.617-.671.885a2.641,2.641,0,0,1-4.236-.581.646.646,0,0,0-.241-.3C697.02,769.622,697.13,769.358,697.238,769.1Z" transform="translate(-678.702 -737.293)" fill="#feb646"/>
      <path id="Path_25082" data-name="Path 25082" d="M729.26,775.133l-.33-.772c.166-.151.355-.364.54-.066a5.652,5.652,0,0,0,3.965,2.522,1.806,1.806,0,0,1-.33.642,1.862,1.862,0,0,1-1.854.752,2.257,2.257,0,0,1-1.521-1.956c-.017-.26.1-.594-.325-.658Z" transform="translate(-705.904 -742.546)" fill="#5cb24f"/>
      <path id="Path_25083" data-name="Path 25083" d="M700.271,633.874a.863.863,0,0,0-.141.475,2.347,2.347,0,0,1-4.18,1.318c.4-.1.629-.442.945-.664A5.64,5.64,0,0,1,700.271,633.874Z" transform="translate(-677.886 -623.38)" fill="#52a047"/>
      <path id="Path_25084" data-name="Path 25084" d="M663.341,645.542a2.268,2.268,0,0,1-3.422-.226A7.717,7.717,0,0,1,663.341,645.542Z" transform="translate(-647.278 -633.02)" fill="#52a047"/>
      <path id="Path_25085" data-name="Path 25085" d="M688.991,646.378h-.451C688.689,646,688.839,645.99,688.991,646.378Z" transform="translate(-671.591 -633.76)" fill="#55a549"/>
      <path id="Path_25086" data-name="Path 25086" d="M726.726,600.031a1.167,1.167,0,0,1,1.1,1.393c-.09.355-.3.53-.653.284-.3-.214-.593-.451-.882-.689a.5.5,0,0,1-.2-.636A.6.6,0,0,1,726.726,600.031Z" transform="translate(-703.446 -594.625)" fill="#fee5c0"/>
      <path id="Path_25087" data-name="Path 25087" d="M625.478,756.22a1.474,1.474,0,0,1,.4,1.074c-.057.486-.322.627-.718.358-.263-.177-.507-.385-.752-.585-.208-.17-.406-.357-.3-.664a.594.594,0,0,1,.668-.394l.337.014Z" transform="translate(-616.827 -727.137)" fill="#fee5bf"/>
      <path id="Path_25088" data-name="Path 25088" d="M840.669,708a1.169,1.169,0,0,1,1.118,1.326c-.063.441-.339.581-.706.331-.292-.2-.56-.433-.832-.661a.512.512,0,0,1-.215-.635A.612.612,0,0,1,840.669,708Z" transform="translate(-800.254 -686.354)" fill="#fee6c0"/>
      <path id="Path_25089" data-name="Path 25089" d="M691.837,655.2a.561.561,0,0,1-.26.579c-.223.119-.391-.054-.551-.172-.254-.19-.5-.391-.743-.594a.5.5,0,0,1-.2-.639.6.6,0,0,1,.587-.351,1.153,1.153,0,0,1,1.163,1.177Z" transform="translate(-672.863 -640.497)" fill="#fde5bf"/>
      <path id="Path_25090" data-name="Path 25090" d="M763.445,804.188a1.655,1.655,0,0,1,.378,1.083c-.059.474-.337.62-.727.352-.275-.19-.531-.409-.788-.624-.191-.161-.357-.343-.254-.624a.581.581,0,0,1,.6-.4h.393Z" transform="translate(-734.017 -767.888)" fill="#fee6c0"/>
      <path id="Path_25091" data-name="Path 25091" d="M714.827,774a1.171,1.171,0,0,1,1.011,1.374c-.083.4-.343.525-.694.289-.292-.2-.561-.433-.834-.659a.515.515,0,0,1-.224-.632C714.2,774.1,714.428,774,714.827,774Z" transform="translate(-693.259 -742.423)" fill="#fee6c0"/>
    </g>
  </g>
</svg>
