<svg xmlns="http://www.w3.org/2000/svg" xmlns:xlink="http://www.w3.org/1999/xlink" width="186" height="170" viewBox="0 0 186 170">
  <defs>
    <filter id="Rectangle_5957" x="0" y="0" width="186" height="170" filterUnits="userSpaceOnUse">
      <feOffset dy="3" input="SourceAlpha"/>
      <feGaussianBlur stdDeviation="3" result="blur"/>
      <feFlood flood-opacity="0.161"/>
      <feComposite operator="in" in2="blur"/>
      <feComposite in="SourceGraphic"/>
    </filter>
  </defs>
  <g id="Group_42397" data-name="Group 42397" transform="translate(-373 -166)">
    <g transform="matrix(1, 0, 0, 1, 373, 166)" filter="url(#Rectangle_5957)">
      <rect id="Rectangle_5957-2" data-name="Rectangle 5957" width="168" height="152" rx="8" fill="#ffffffb0" transform="translate(9 6)"/>
    </g>
    <text id="Picture_view_point" data-name="Picture
view point" transform="translate(466 275)" fill="#333" font-size="18" font-family="SofiaPro-Regular, Sofia Pro"><tspan x="-28.629" y="0">Picture</tspan><tspan x="-41.769" y="26">view point</tspan></text>
    <g id="Picture_view_point-2" data-name="Picture view point" transform="translate(-4027 -3249)">
      <rect id="Rectangle_5949" data-name="Rectangle 5949" width="56" height="56" transform="translate(4465 3437)" fill="rgba(255,255,255,0)"/>
      <g id="mountain" transform="translate(4465 3447.169)">
        <path id="Path_25234" data-name="Path 25234" d="M574.264,769.311l-10.312.016c-1.692,0-3.384-.007-5.075,0a.96.96,0,0,1-.817-.334V752.266a1.179,1.179,0,0,1,1.04-.327c.416.015.833,0,1.249-.01a1.086,1.086,0,0,1,.729-.168h12.883a1.812,1.812,0,0,1,.594.064c.4.22.2.541.1.81-.5,1.4-.982,2.808-1.491,4.206-.155.426-.312.852-.438,1.288-.248.907.13,1.406,1.065,1.422h.979a.688.688,0,0,1,.627.254,4.207,4.207,0,0,1,.089,1.29,1.28,1.28,0,0,0,.1.583.605.605,0,0,0,.621.352.63.63,0,0,0,.583-.56,7.26,7.26,0,0,0,.032-1.084,1.23,1.23,0,0,1,.108-.687.892.892,0,0,1,.672-.146c.4-.01.8.023,1.2-.016a.891.891,0,0,0,.855-1,3.418,3.418,0,0,0-.27-.993c-.583-1.625-1.139-3.256-1.717-4.881-.1-.268-.3-.583.067-.83a1.979,1.979,0,0,1,.7-.076H591.56a2.627,2.627,0,0,1,.651.048c.146.051.27.124.178.315a1.135,1.135,0,0,1-.2.258c-1.033,1.128-1.094,1.81-.292,3.126.236.39.528.74.769,1.128,1.186,1.905.074,3.249-1.167,3.939a15.981,15.981,0,0,1-3.421,1.288c-1.821.524-3.688.875-5.484,1.5a18.729,18.729,0,0,0-4.918,2.465,12.092,12.092,0,0,0-2.977,3.017A1.118,1.118,0,0,1,574.264,769.311Z" transform="translate(-558.06 -733.675)" fill="#abd87f"/>
        <path id="Path_25235" data-name="Path 25235" d="M817.582,768.977a.918.918,0,0,1-.708.333q-8.4-.016-16.8-.013a.915.915,0,0,1-.109-.012,5.866,5.866,0,0,1-3.05-1.7,1.533,1.533,0,0,1,.4-2.626,23.151,23.151,0,0,1,2.734-1.1,19.891,19.891,0,0,0,3.685-1.758,3.782,3.782,0,0,0,1.03-.967,1.9,1.9,0,0,0-.621-2.934,7.153,7.153,0,0,0-1.778-.68,10.111,10.111,0,0,1-1.444-.5c-1.878-.823-2.133-2.789-.515-4.23a5.083,5.083,0,0,1,1.8-1.021c1.039-.083,2.079-.025,3.117-.034a11.323,11.323,0,0,1,2.108.071c.266.194.109.438.042.639-.233.729-.525,1.427-.75,2.155a2.186,2.186,0,0,0-.133.69.875.875,0,0,0,.868.928c.4.036.8,0,1.195.018.254.009.515.009.681.254a4.635,4.635,0,0,1,.09,1.4c.032.573.229.836.646.829s.635-.308.683-.833a4.561,4.561,0,0,1,.114-1.508c.3-.233.662-.127,1-.146.217-.015.438,0,.654,0a.971.971,0,0,0,.988-1.428c-.254-.756-.5-1.514-.789-2.26-.086-.225-.247-.465-.018-.706a2.313,2.313,0,0,1,.988-.095c.77-.031,1.539-.01,2.309-.012a.875.875,0,0,1,.608.165,1.117,1.117,0,0,1,.979.334Z" transform="translate(-761.582 -733.648)" fill="#abd87f"/>
        <path id="Path_25236" data-name="Path 25236" d="M615.216,675.557l-3.291.015a3.346,3.346,0,0,1-1.126.169h-4.2a1.057,1.057,0,0,1-.78-.162H591.028c-.346-.134-.347-.484-.457-.756-.19-.473-.438-.856-1.005-.859-.535,0-.78.373-1,.8-.139.276-.083.672-.467.807l-13.533-.017c-.273,0-.546,0-.818-.01.48-1.561.964-3.119,1.437-4.68a1.268,1.268,0,0,1,1.179-1.021c.97-.1,1.931-.292,2.9-.379a2.061,2.061,0,0,0,1.275-.645c2-1.88,3.984-3.77,6-5.631a3.451,3.451,0,0,1,1.11-.861,3.024,3.024,0,0,1,.918.674c1.9,1.777,3.857,3.488,5.737,5.285a3.368,3.368,0,0,0,2.029.922q4.333.531,8.656,1.128c1.459.2,2.918.362,4.376.583a2.012,2.012,0,0,1,.99.423q2.285,1.864,4.57,3.724C615.083,675.189,615.266,675.309,615.216,675.557Z" transform="translate(-571.461 -657.295)" fill="#e3c1ba"/>
        <path id="Path_25237" data-name="Path 25237" d="M807.97,672.244h-.979c-.248-.088-.273-.325-.346-.524-.408-1.112-.791-2.232-1.193-3.346-.036-.1-.073-.206-.12-.3a.984.984,0,0,0-.944-.7,1,1,0,0,0-.937.729c-.292.767-.566,1.538-.834,2.312a2.071,2.071,0,0,1-.438.985c-.4-.023-.633-.337-.9-.568-1.6-1.395-3.256-2.738-4.842-4.155a3.086,3.086,0,0,0-1.828-.6q-2.217-.282-4.432-.583c-.23-.029-.492-.031-.49-.372a6.36,6.36,0,0,1,1.51-.57c.8-.292,1.6-.543,2.409-.814a20.759,20.759,0,0,1,2.2-.664,1.167,1.167,0,0,0,1.053-.543c.827-1.195,1.688-2.366,2.528-3.551.146-.2.252-.4.535-.406,1.29-.029,2.576-.162,3.869-.1a.9.9,0,0,1,.248.091c-.146.178-.362.146-.557.146-.638,0-1.273.025-1.882-.019.438.909.826,1.845,1.179,2.8a.752.752,0,0,1-.274.829c-.461.467-.929.926-1.389,1.395-.245.251-.454.537-.136.848.292.283.583.1.824-.115.451-.4.852-.848,1.287-1.262a2.832,2.832,0,0,1,2.276-.279,1.008,1.008,0,0,1,.4.689c.63,2.264,1.241,4.532,1.857,6.8.115.422.252.837.343,1.266C808.007,671.856,808.107,672.051,807.97,672.244Z" transform="translate(-755.9 -653.982)" fill="#dbd1cc"/>
        <path id="Path_25238" data-name="Path 25238" d="M686.676,667.592c.108.231.321.188.516.213,1.772.223,3.543.457,5.314.683a1.919,1.919,0,0,1,.992.519q2.81,2.4,5.612,4.808a.8.8,0,0,1-.311.875h-2.169a21.384,21.384,0,0,0-2.061-1.759c-.875-.754-1.831-1.425-2.691-2.2a2.656,2.656,0,0,0-1.529-.616c-2.077-.273-4.159-.515-6.236-.788s-4.115-.566-6.174-.846c-.214-.029-.438-.029-.652-.041a2.447,2.447,0,0,1-1.51-.776c-1.007-.916-2-1.851-3-2.772-1.1-1-2.207-1.993-3.307-2.993a5.794,5.794,0,0,1-.4-.438,7.157,7.157,0,0,1,2.845-.013c.753.158,1.2.9,1.81,1.342.158.115.266.3.486.324a9.215,9.215,0,0,1,1.751,1.376c.6.493,1.222.976,1.784,1.519a3.41,3.41,0,0,0,2.141.658c2.235.292,4.465.6,6.7.875A.21.21,0,0,1,686.676,667.592Z" transform="translate(-652.876 -656.429)" fill="#caa49c"/>
        <path id="Path_25239" data-name="Path 25239" d="M716.784,668.693c-.449.206-.9,0-1.33-.048-1.562-.169-3.116-.41-4.668-.616-.645-.086-1.294-.146-1.937-.236a1.975,1.975,0,0,1-1-.513c-1.1-.944-2.212-1.876-3.314-2.817a1.929,1.929,0,0,1-.21-.248l1.64-1.436a1.909,1.909,0,0,1,.846-.146c.944,0,1.888.022,2.831,0a1.468,1.468,0,0,1,1.274.584c.388.481.786.953,1.176,1.431.426.524.6.516.992-.009a6.3,6.3,0,0,0,.651-.938,1.765,1.765,0,0,1,2.093-1.049.665.665,0,0,1,.161.042c.833.729,1.659,1.459,2.441,2.251.654.658,1.313,1.313,1.965,1.969.146.146.314.258.347.474Q718.787,668.127,716.784,668.693Z" transform="translate(-682.984 -657.53)" fill="#a199a4"/>
        <path id="Path_25240" data-name="Path 25240" d="M872.068,672.912c-.8-2.935-1.6-5.867-2.392-8.805-.092-.344-.251-.5-.6-.489a.228.228,0,0,1-.054,0,2.2,2.2,0,0,0-2.32.92,4.578,4.578,0,0,1-.769.772c-.312.264-.686.413-1.009.045a.649.649,0,0,1,.1-1c.532-.5,1.033-1.021,1.551-1.538.162-.162.3-.324.2-.572-.41-.985-.821-1.969-1.258-3.012h2.626c.353-.019.452.249.559.5.487,1.154.982,2.3,1.446,3.468a.531.531,0,0,0,.6.408c.417-.023.839.022,1.255-.013s.565.19.659.549c.486,1.821.989,3.637,1.481,5.454.3,1.1.591,2.2.885,3.307Z" transform="translate(-819.998 -654.651)" fill="#c7bdb8"/>
        <path id="Path_25241" data-name="Path 25241" d="M725.425,636.368a1.84,1.84,0,0,0-2.175,1.167,7.116,7.116,0,0,1-.675.982c-.317.438-.543.458-.906.042-.4-.462-.8-.938-1.167-1.434a1.615,1.615,0,0,0-1.491-.772c-1.177.064-2.36.019-3.54.019l5.364-4.683c1.5,1.381,2.976,2.8,4.4,4.263C725.347,636.065,725.5,636.171,725.425,636.368Z" transform="translate(-692.507 -631.125)" fill="#c4bdc5"/>
        <path id="Path_25242" data-name="Path 25242" d="M789.239,667.205l-4.709-4.6a3.656,3.656,0,0,1,2.408-.013l4.458,3.847A8.627,8.627,0,0,1,789.239,667.205Z" transform="translate(-751.493 -657.351)" fill="#8c818e"/>
        <path id="Path_25243" data-name="Path 25243" d="M759.344,633.062l-2.408.013-.12-.012c-1.079-1.15-2.177-2.279-3.355-3.332a4.416,4.416,0,0,1-1.231-1.345c.134-.123.267-.247.4-.366a.642.642,0,0,1,.931,0q2.115,1.837,4.23,3.676C758.323,632.149,758.835,632.607,759.344,633.062Z" transform="translate(-723.905 -627.82)" fill="#b4acb6"/>
        <path id="Path_25244" data-name="Path 25244" d="M687.286,753.09H693.4a6,6,0,0,0-2.1,1.6,2.1,2.1,0,0,0,.8,3.256,12.682,12.682,0,0,0,2.369.811,5.118,5.118,0,0,1,1.285.584,2.072,2.072,0,0,1,.292,3.3,9.152,9.152,0,0,1-3.342,2.012c-1.119.48-2.268.885-3.406,1.325-.067.026-.136.051-.2.08-1.482.642-1.678,1.726-.49,2.82a7.311,7.311,0,0,0,2.238,1.338c.166.068.325.146.487.229-.217,0-.438.019-.655.019H669.74c-.2,0-.4-.01-.6-.016a12.168,12.168,0,0,1,4.68-4.473,29.862,29.862,0,0,1,8.048-2.837,19.124,19.124,0,0,0,4.423-1.533,3.007,3.007,0,0,0,1.516-1.65,2.545,2.545,0,0,0-.483-2.263c-.247-.4-.547-.775-.789-1.18a2.18,2.18,0,0,1,.487-3.151C687.115,753.28,687.2,753.182,687.286,753.09Z" transform="translate(-652.936 -734.815)" fill="#80b5fb"/>
        <path id="Path_25245" data-name="Path 25245" d="M582.278,786.887a3.318,3.318,0,0,1-.055-1.187c0-.366-.127-.486-.477-.462a10.236,10.236,0,0,1-1.039,0,1.178,1.178,0,0,1-1.195-1.689q1.233-3.526,2.48-7.04a1.156,1.156,0,0,1,1.136-.859,1.181,1.181,0,0,1,1.065.875c.808,2.315,1.643,4.621,2.455,6.935.387,1.1-.108,1.778-1.284,1.784h-1.421a.8.8,0,0,1-.454.159c-.315.044-.7-.136-.931.146-.2.242-.06.6-.1.9C582.445,786.62,582.444,786.791,582.278,786.887Z" transform="translate(-576.295 -754.08)" fill="#5ea470"/>
        <path id="Path_25246" data-name="Path 25246" d="M659.138,742.793l.344-.855c.251-.636.61-.925,1.148-.9a1.183,1.183,0,0,1,1.11.96c.092.273.216.535.324.8q.941,2.729,1.879,5.459a3.77,3.77,0,0,1,.328,1.145,1.029,1.029,0,0,1-1.09,1.148c-.583.013-1.167.009-1.751.012a3,3,0,0,1-1.666.092,4.189,4.189,0,0,0-1.559-.095c-1.047-.025-1.517-.648-1.167-1.657.652-1.9,1.329-3.793,1.993-5.689C659.077,743.071,659.1,742.932,659.138,742.793Z" transform="translate(-642.502 -724.517)" fill="#5ea470"/>
        <path id="Path_25247" data-name="Path 25247" d="M676.42,806.32a5.158,5.158,0,0,1,1.666-.092c0,.546,0,1.093-.007,1.638a.827.827,0,1,1-1.651-.012C676.419,807.341,676.423,806.826,676.42,806.32Z" transform="translate(-659.154 -780.181)" fill="#8b5e5e"/>
        <path id="Path_25248" data-name="Path 25248" d="M599.07,843.074c0-.438.025-.864.022-1.3,0-.254.1-.356.353-.35.438.012.865,0,1.3.009,0,.509.012,1.021,0,1.529a.9.9,0,0,1-.791.958C599.5,843.955,599.169,843.634,599.07,843.074Z" transform="translate(-593.087 -810.267)" fill="#8c5e5e"/>
        <path id="Path_25249" data-name="Path 25249" d="M866.427,723.6l.311-.875q.562-1.6,1.126-3.19a1.2,1.2,0,0,1,1.119-.955,1.159,1.159,0,0,1,1.141.92c.495,1.367.979,2.738,1.468,4.109.3.875.6,1.75.915,2.613a2.055,2.055,0,0,1,.166,1.008,1.04,1.04,0,0,1-1.033.865c-.6.015-1.2.009-1.8.013a3.086,3.086,0,0,1-1.667.093,4.4,4.4,0,0,0-1.616-.1,1.107,1.107,0,0,1-1.141-1.564C865.731,725.55,866.087,724.579,866.427,723.6Z" transform="translate(-820.507 -705.339)" fill="#5ea470"/>
        <path id="Path_25250" data-name="Path 25250" d="M884.81,783.82a5.165,5.165,0,0,1,1.667-.093v1.584c-.012.583-.334.929-.846.923-.541,0-.8-.3-.807-.938C884.811,784.805,884.813,784.312,884.81,783.82Z" transform="translate(-837.144 -760.964)" fill="#8b5e5e"/>
      </g>
    </g>
  </g>
</svg>
