<svg xmlns="http://www.w3.org/2000/svg" xmlns:xlink="http://www.w3.org/1999/xlink" width="186" height="170" viewBox="0 0 186 170">
  <defs>
    <filter id="Rectangle_5951" x="0" y="0" width="186" height="170" filterUnits="userSpaceOnUse">
      <feOffset dy="3" input="SourceAlpha"/>
      <feGaussianBlur stdDeviation="3" result="blur"/>
      <feFlood flood-opacity="0.161"/>
      <feComposite operator="in" in2="blur"/>
      <feComposite in="SourceGraphic"/>
    </filter>
  </defs>
  <g id="Group_42391" data-name="Group 42391" transform="translate(-178 6)">
    <g transform="matrix(1, 0, 0, 1, 178, -6)" filter="url(#Rectangle_5951)">
      <rect id="Rectangle_5951-2" data-name="Rectangle 5951" width="168" height="152" rx="8" fill="#ffffffb0" transform="translate(9 6)"/>
    </g>
    <text id="Street_Lighting" data-name="Street
Lighting" transform="translate(271 103)" fill="#333" font-size="18" font-family="SofiaPro-Regular, Sofia Pro"><tspan x="-24.192" y="0">Street</tspan><tspan x="-32.823" y="26">Lighting</tspan></text>
    <g id="Street_Lighting-2" data-name="Street Lighting" transform="translate(-3816 -3394)">
      <rect id="Rectangle_5943" data-name="Rectangle 5943" width="56" height="56" transform="translate(4059 3410)" fill="rgba(255,255,255,0)"/>
      <g id="street-lamp" transform="translate(4058.998 3410)">
        <path id="Path_25092" data-name="Path 25092" d="M608.362,917.311l1.322.032a1.716,1.716,0,0,1-.115,3.367H559.6a1.554,1.554,0,0,1-1.2-1.2v-.983a2.3,2.3,0,0,1,2.38-1.214c5.2.036,10.41.018,15.615.016.217,0,.437-.012.652-.019a.924.924,0,0,1,.618-.156c1.286,0,2.57-.022,3.854.01.924-.028,1.848-.01,2.77-.01a.87.87,0,0,1,.618.157l11.118.018c1.488,0,2.978-.013,4.468-.019a.975.975,0,0,1,.621-.157c1.286,0,2.571-.02,3.857.012.923-.028,1.847-.01,2.77-.009A.871.871,0,0,1,608.362,917.311Z" transform="translate(-558.34 -864.807)" fill="#d57b42"/>
        <path id="Path_25093" data-name="Path 25093" d="M909.42,921.777a1.844,1.844,0,0,0,1.312-1.824c-.05-.784-.608-1.175-1.194-1.544.994,0,1.99-.026,2.984-.01a1.862,1.862,0,0,1,1.592,1.194v.982a1.458,1.458,0,0,1-1.2,1.2Z" transform="translate(-858.191 -865.873)" fill="#bd652b"/>
        <path id="Path_25094" data-name="Path 25094" d="M612.851,558.1a7.949,7.949,0,0,1,1.876.968,2.834,2.834,0,0,1,.739,1.22c.05.182.146.373.009.563.146.614-.217.69-.688.652a1.369,1.369,0,0,1-.929.146,7.734,7.734,0,0,1-1.653-.055.4.4,0,0,1-.248-.386,3.283,3.283,0,0,0-1.322-2.392.324.324,0,0,1-.115-.179c.258-.337.706-.306,1.02-.528Z" transform="translate(-602.862 -558.1)" fill="#3a718f"/>
        <path id="Path_25095" data-name="Path 25095" d="M774.01,558.1a9.058,9.058,0,0,1,1.873.969,2.4,2.4,0,0,1,.752,1.777c.136.641-.268.681-.729.656-.437.271-.918.125-1.38.146a4.014,4.014,0,0,1-1.136-.048c-.208-.063-.257-.238-.281-.423a3.409,3.409,0,0,0-1.261-2.332.27.27,0,0,1-.121-.283c.267-.276.671-.261.974-.461Z" transform="translate(-740.565 -558.1)" fill="#3a718f"/>
        <path id="Path_25098" data-name="Path 25098" d="M699.619,610.663a2.673,2.673,0,0,1,1.02-1.157,1.791,1.791,0,0,1,2.58,1.618c.079,1.013.023,2.028.032,3.041.01,1.4-.01,2.793.01,4.188,0,.392-.13.573-.515.583-.888.032-1.774-.015-2.662-.018-.424,0-.427-.3-.466-.583l-.106-1.536a13.389,13.389,0,0,0-.083-1.727v-3.755A.759.759,0,0,1,699.619,610.663Z" transform="translate(-678.812 -601.848)" fill="#437f9e"/>
        <path id="Path_25099" data-name="Path 25099" d="M647.966,572.647q0,2.779-.019,5.561c0,.192.067.4-.089.574a20.179,20.179,0,0,0-2.634-7.955,9.153,9.153,0,0,0-5.453-4.241,2.908,2.908,0,0,0-.767-1.6c-.064-.058-.052-.124.019-.173a8.71,8.71,0,0,1,4.357,1.7A12.81,12.81,0,0,1,647.966,572.647Z" transform="translate(-627.158 -563.832)" fill="#2b6181"/>
        <path id="Path_25100" data-name="Path 25100" d="M690.671,888.024H686.19c0-.994.074-1.994-.015-2.98a1.845,1.845,0,0,1,2.08-2.029,1.269,1.269,0,0,1,.163-.1,2.122,2.122,0,0,1,.767-.034,1.95,1.95,0,0,1,1.646,2.095c.009.794,0,1.589,0,2.383A.878.878,0,0,1,690.671,888.024Z" transform="translate(-667.483 -835.52)" fill="#a8daf4"/>
        <path id="Path_25101" data-name="Path 25101" d="M700.619,659.951l-.146.015.009-17.249v-9.825c.087-.369.4-.23.617-.251a1.444,1.444,0,0,0,1.385-1.286,1.606,1.606,0,0,0-.875-1.6,1.543,1.543,0,0,0-.583-.106c-.194-.01-.4.023-.555-.146.013-.181.025-.363.036-.544.068.347.245.484.63.462a20.911,20.911,0,0,1,2.283,0c.512.028.681-.1.672-.646-.034-2.141-.015-4.284-.012-6.426,0-.2.017-.4.028-.6a.992.992,0,0,1,.069.583c0,2.166.01,4.331,0,6.5,0,.407.07.622.533.688a1.663,1.663,0,0,1,.08,3.246c-.5.1-.62.292-.618.789q.025,12.879.013,25.761c0,.217.026.437.039.652-.146.039-.19-.061-.239-.16a3.133,3.133,0,0,1-.066-.975V634.1c0-1.034,0-1.035-1.054-1.034h-1.589c-.343,0-.5.163-.5.5v25.38A1.565,1.565,0,0,1,700.619,659.951Z" transform="translate(-679.7 -612.471)" fill="#87c2df"/>
        <path id="Path_25102" data-name="Path 25102" d="M612.121,580.457l2.7.039a3.4,3.4,0,0,1,.258,4.109,3.243,3.243,0,0,1-4.519,1.02c.12-.283.4-.411.6-.615a3.219,3.219,0,0,0,.4-4.041c-.108-.162-.35-.3-.156-.554A.691.691,0,0,1,612.121,580.457Z" transform="translate(-602.896 -577.094)" fill="#fec228"/>
        <path id="Path_25103" data-name="Path 25103" d="M601.6,580.157a2.593,2.593,0,1,1-1.972.49c.1-.168.224-.328.337-.491A1.653,1.653,0,0,1,601.6,580.157Z" transform="translate(-593.135 -576.756)" fill="#fed44f"/>
        <path id="Path_25104" data-name="Path 25104" d="M689.62,674.859c.714-.015,1.413-.035,1.87.694a1.642,1.642,0,0,1,.077,1.792,1.42,1.42,0,0,1-1.427.794c-.173-.009-.369-.058-.509.111a2.441,2.441,0,0,1-1.417-.6,1.663,1.663,0,0,1-.278-1.867A1.554,1.554,0,0,1,689.62,674.859Z" transform="translate(-668.848 -657.83)" fill="#a8daf4"/>
        <path id="Path_25105" data-name="Path 25105" d="M602.114,564.6h-1.636c-.813-.045-.835-.051-.647-.84a2.9,2.9,0,0,1,1.475-2.032,2.99,2.99,0,0,1,1.567,2.835Z" transform="translate(-593.649 -561.201)" fill="#43809e"/>
        <path id="Path_25106" data-name="Path 25106" d="M865.155,697.111v26.968c-.222.213-.5.146-.768.166a14.056,14.056,0,0,0-1.934.054c-.3.035-.615.122-.882-.12q0-6.114-.01-12.227,0-7.424.009-14.848a.451.451,0,0,1,.34-.138c.934-.019,1.869-.055,2.8-.02A.583.583,0,0,1,865.155,697.111Z" transform="translate(-817.307 -676.692)" fill="#43809e"/>
        <path id="Path_25107" data-name="Path 25107" d="M860.5,610.737a2.084,2.084,0,0,1,1.312-1.275,1.789,1.789,0,0,1,2.273,1.8c.009,2.526,0,5.052,0,7.58a7.855,7.855,0,0,1-3.589,0l-.1-1.857a8.422,8.422,0,0,0-.073-1.509c-.019-1.359,0-2.719,0-4.082A.766.766,0,0,1,860.5,610.737Z" transform="translate(-816.241 -601.919)" fill="#43809e"/>
        <path id="Path_25108" data-name="Path 25108" d="M809.213,572.633q0,2.835-.018,5.671c0,.192.07.4-.09.573a21.532,21.532,0,0,0-2.229-7.353,9.566,9.566,0,0,0-5.854-4.956,11.072,11.072,0,0,0-.752-1.777,9.329,9.329,0,0,1,5.208,2.363A13.6,13.6,0,0,1,809.213,572.633Z" transform="translate(-764.952 -563.815)" fill="#2b6181"/>
        <path id="Path_25109" data-name="Path 25109" d="M849.185,883.766h.843a1.379,1.379,0,0,1,1.421.864,2.623,2.623,0,0,1,.278,1.261v2.226a.867.867,0,0,1-.162.666h-4.488c0-.975.073-1.958-.009-2.926A1.838,1.838,0,0,1,849.185,883.766Z" transform="translate(-804.92 -836.276)" fill="#a8daf4"/>
        <path id="Path_25110" data-name="Path 25110" d="M773.31,580.464l2.659.038a3.417,3.417,0,0,1-.379,4.863,3.29,3.29,0,0,1-3.79.335c-.034-.251.182-.334.319-.461a3.21,3.21,0,0,0,.62-4.265c-.1-.165-.332-.318-.13-.561A.7.7,0,0,1,773.31,580.464Z" transform="translate(-740.629 -577.099)" fill="#fec228"/>
        <path id="Path_25111" data-name="Path 25111" d="M709.266,882.007l.146.121a1.793,1.793,0,0,1,2.051,2.015v3h-3.382v-2.933a1.823,1.823,0,0,0-1.541-2.086.194.194,0,0,1,.163-.192A5.921,5.921,0,0,1,709.266,882.007Z" transform="translate(-684.885 -834.637)" fill="#87c2df"/>
        <path id="Path_25112" data-name="Path 25112" d="M762.352,580.144a3.342,3.342,0,0,1-.653,5.074.611.611,0,0,0-.1.125,3.353,3.353,0,0,1-.9-5.2A1.663,1.663,0,0,1,762.352,580.144Z" transform="translate(-730.426 -576.744)" fill="#fed44f"/>
        <path id="Path_25113" data-name="Path 25113" d="M861.4,674.16h3.589a1.986,1.986,0,0,1,1.726.948,1.7,1.7,0,0,1-1.029,2.436c-.224.06-.462.079-.694.117h-3.585l-.032.009c.058-.308.316-.236.512-.254a1.5,1.5,0,0,0,1.5-1.469,1.534,1.534,0,0,0-1.521-1.528.541.541,0,0,1-.5-.146Z" transform="translate(-817.145 -657.242)" fill="#87c2df"/>
        <path id="Path_25114" data-name="Path 25114" d="M850.469,674.908a1.96,1.96,0,0,1,1.73.544,1.616,1.616,0,0,1,.306,1.749,1.5,1.5,0,0,1-1.468.985c-.191,0-.4-.067-.56.115a6.106,6.106,0,0,1-.786-.191,1.658,1.658,0,0,1,.777-3.2Z" transform="translate(-806.247 -657.881)" fill="#a8daf4"/>
        <path id="Path_25115" data-name="Path 25115" d="M762.93,564.217h-1.654c-.825-.047-.838-.05-.643-.875a3.039,3.039,0,0,1,1.534-2.063,3.474,3.474,0,0,1,1.519,2.9Z" transform="translate(-731.004 -560.816)" fill="#43809e"/>
        <path id="Path_25116" data-name="Path 25116" d="M868.988,888.3v-2.948a1.857,1.857,0,0,0-1.538-2.07,10.57,10.57,0,0,1,2.092-.082c.217-.013.437-.01.65-.015.1.106.23.085.354.093a1.8,1.8,0,0,1,1.818,1.929v3.093Z" transform="translate(-822.339 -835.801)" fill="#87c2df"/>
        <path id="Path_25117" data-name="Path 25117" d="M704.662,725.01c-.719.01-1.439.019-2.156.034a.877.877,0,0,0-.583.082h-.729c-.01-.2-.029-.4-.029-.6q0-12.9-.015-25.8c0-.566.146-.716.7-.682.8.05,1.6.025,2.4.01.3,0,.446.079.411.4a4.319,4.319,0,0,0,0,.437Q704.66,711.946,704.662,725.01Z" transform="translate(-680.281 -677.64)" fill="#43809e"/>
      </g>
    </g>
  </g>
</svg>
