<svg xmlns="http://www.w3.org/2000/svg" xmlns:xlink="http://www.w3.org/1999/xlink" width="186" height="170" viewBox="0 0 186 170">
  <defs>
    <filter id="Rectangle_5956" x="0" y="0" width="186" height="170" filterUnits="userSpaceOnUse">
      <feOffset dy="3" input="SourceAlpha"/>
      <feGaussianBlur stdDeviation="3" result="blur"/>
      <feFlood flood-opacity="0.161"/>
      <feComposite operator="in" in2="blur"/>
      <feComposite in="SourceGraphic"/>
    </filter>
  </defs>
  <g id="Group_42396" data-name="Group 42396" transform="translate(-178 -166)">
    <g transform="matrix(1, 0, 0, 1, 178, 166)" filter="url(#Rectangle_5956)">
      <rect id="Rectangle_5956-2" data-name="Rectangle 5956" width="168" height="152" rx="8" fill="#ffffffb0" transform="translate(9 6)"/>
    </g>
    <text id="Walking_Track" data-name="Walking
Track" transform="translate(271 275)" fill="#333" font-size="18" font-family="SofiaPro-Regular, Sofia Pro"><tspan x="-32.472" y="0">Walking</tspan><tspan x="-21.852" y="26">Track</tspan></text>
    <g id="Group_42388" data-name="Group 42388" transform="translate(-4258 -3242)">
      <rect id="Rectangle_5947" data-name="Rectangle 5947" width="56" height="56" transform="translate(4501 3430)" fill="rgba(255,255,255,0)"/>
      <g id="walking" transform="translate(4504.47 3430.04)">
        <path id="Path_25176" data-name="Path 25176" d="M582.662,931.153a3.178,3.178,0,0,1-.324-.28.763.763,0,0,1-.146-.861.882.882,0,0,1,.931-.516q5.164.012,10.329,0c.217,0,.438-.013.655-.02a5.83,5.83,0,0,1,2.023-.131c6.7-.018,13.392-.029,20.087,0a6.136,6.136,0,0,1,2.127.128l10.3.02c.438,0,.875.013,1.313,0,.484-.019.925.034,1.11.568.178.511-.146.813-.5,1.088Z" transform="translate(-582.09 -875.193)" fill="#8ac627"/>
        <path id="Path_25177" data-name="Path 25177" d="M724.657,558.074c.241.212.575.276.792.531a1.746,1.746,0,0,1,.352,1.907q-.19.477-.384.951c-.181.311-.492.268-.776.27-1.543.007-3.087,0-4.63,0-.928,0-1.05.107-1.247,1-.162.745-.187.778-.953.861-.292.032-.556.172-.848.194-.179-.05-.194-.207-.2-.347a5.424,5.424,0,0,1,.9-3.78,3.8,3.8,0,0,1,2.838-1.595Z" transform="translate(-697.073 -558.109)" fill="#f9c500"/>
        <path id="Path_25178" data-name="Path 25178" d="M703.686,558.066a5.521,5.521,0,0,0-2.117,1.037,4.322,4.322,0,0,0-1.383,2.4,11.973,11.973,0,0,0-.112,2.228c-.031.471-.333.862-.315,1.373a1.972,1.972,0,0,0,.592,1.543,1.976,1.976,0,0,1,.279.643,4.358,4.358,0,0,1-.327,1.459.331.331,0,0,1-.341.28,3.342,3.342,0,0,1-2.641-2.907c-.063-.649-.057-1.313-.082-1.959-.321-.557-.123-1.167-.156-1.751a10.386,10.386,0,0,1,.328-1.685,1.372,1.372,0,0,1,.568-.818,5.24,5.24,0,0,1,2.645-1.848Z" transform="translate(-680.256 -558.1)" fill="#e7b700"/>
        <path id="Path_25179" data-name="Path 25179" d="M727.539,662.8c0,2.086-.013,4.171-.009,6.257a.855.855,0,0,1-.333.807c-.125.206-.34.2-.534.2a10.013,10.013,0,0,1-1.58-.035c-.363-.131-.185-.331-.044-.493.363-.407.769-.773,1.147-1.167a1.218,1.218,0,0,0-.013-1.983,1.538,1.538,0,0,0-1.72-.629c-.22.077-.385-.06-.531-.2q-1.685-1.67-3.355-3.355a.583.583,0,0,1-.213-.481q.031-1.058,0-2.114c-.018-.292.191-.46.368-.639.677-.687,1.377-1.352,2.042-2.054a1.892,1.892,0,0,0-.042-2.813,1.5,1.5,0,0,0-1.18-.458,1.271,1.271,0,0,1-.642-.077c-.188-.2-.023-.376.061-.54a3.048,3.048,0,0,1,1.387-1.341,1.6,1.6,0,0,0,.508-.306.477.477,0,0,1,.509.165,6.647,6.647,0,0,1,2.894,2.15c.767.923,1.594,1.8,2.382,2.709a5.45,5.45,0,0,1,.438.686,2.142,2.142,0,0,1,.321,1.969,3.17,3.17,0,0,1-1.313,1.924.9.9,0,0,0-.423.875A1.658,1.658,0,0,1,727.539,662.8Z" transform="translate(-700.157 -637.789)" fill="#fd7701"/>
        <path id="Path_25180" data-name="Path 25180" d="M718.264,591.722l-.54-.09a.567.567,0,0,1-.416.095,4.769,4.769,0,0,0-1.943.082.531.531,0,0,1-.468-.067c-.009-.757-.019-1.513-.026-2.27a.889.889,0,0,0-.109-.572,4.281,4.281,0,0,0,.562-1.762c.076-.245-.083-.387-.232-.534a2.187,2.187,0,0,1-.219-3,1.71,1.71,0,0,1,1.138-.292.41.41,0,0,0,.518-.394c.264-1.415.074-1.471,1.77-1.459,1.494.015,2.988,0,4.483,0a.8.8,0,0,0,.62-.136,7.678,7.678,0,0,0-.073,2.274c.031.527.5.867.76,1.3a5.686,5.686,0,0,1,.318.5.677.677,0,0,1-.438,1.034c-.6.114-.712.489-.781.986a3.5,3.5,0,0,1-.839,1.917,2.545,2.545,0,0,1-1.936.845c-.508.013-1.021.015-1.526,0-.438-.013-.637.177-.62.617C718.279,591.1,718.264,591.412,718.264,591.722Z" transform="translate(-695.056 -577.967)" fill="#fdd1a3"/>
        <path id="Path_25181" data-name="Path 25181" d="M741.584,778.229l2.3-.016c1.428,2.464,2.846,4.932,4.292,7.385.252.43.041.624-.255.839a4.774,4.774,0,0,1-1.313.929c-.193.131-.4.249-.592.381a1.5,1.5,0,0,1-.729.3c-.314-.1-.423-.384-.565-.63q-2.257-3.921-4.543-7.822c-.146-.244-.366-.468-.261-.8a2.1,2.1,0,0,0,1.519-.584A.206.206,0,0,1,741.584,778.229Z" transform="translate(-716.846 -746.133)" fill="#01cffa"/>
        <path id="Path_25182" data-name="Path 25182" d="M769.379,667.622a2.761,2.761,0,0,0-.018-.381c-.06-.741-.054-1.395.779-1.813.559-.283.763-.95.983-1.532a1.975,1.975,0,0,1,.461-.6q1.643-1.639,3.285-3.278a.887.887,0,0,0,.327-1.056.9.9,0,0,1,.146-.884A3.4,3.4,0,0,1,776.475,657c.559.547,1.131,1.081,1.67,1.646a1.218,1.218,0,0,1,0,1.761,7.923,7.923,0,0,1-.619.616c-.22.2-.508.427-.773.339-.729-.249-1.046.283-1.441.675q-2.4,2.39-4.785,4.788A3.231,3.231,0,0,1,769.379,667.622Z" transform="translate(-741.997 -642.606)" fill="#fdcc9c"/>
        <path id="Path_25183" data-name="Path 25183" d="M781.43,835.811A18.665,18.665,0,0,1,783.4,834.6l4.045,7a6.656,6.656,0,0,1-1.845,1.157.292.292,0,0,1-.155-.038,25.836,25.836,0,0,1-1.459-2.42c-.82-1.393-1.615-2.8-2.441-4.188A.692.692,0,0,1,781.43,835.811Z" transform="translate(-752.324 -794.297)" fill="#fdd1a3"/>
        <path id="Path_25184" data-name="Path 25184" d="M820.282,896.675a2.541,2.541,0,0,1,2.142-.311,2.991,2.991,0,0,1,1.7,1.882c.146.321-.083.543-.36.7q-1.85,1.05-3.694,2.108a4.8,4.8,0,0,1-.954-1.415,18.875,18.875,0,0,0-1.04-1.641c-.023-.168.1-.232.211-.309a13.758,13.758,0,0,0,1.349-.778A1.857,1.857,0,0,1,820.282,896.675Z" transform="translate(-783.619 -846.946)" fill="#54469b"/>
        <path id="Path_25185" data-name="Path 25185" d="M785.718,653.483c-.258.279-.508.566-.779.832a1.063,1.063,0,0,0-.327,1.269.6.6,0,0,1-.146.737l-4.1,4.059a3.623,3.623,0,0,0-.2-1.99q1.313-1.3,2.642-2.6a.384.384,0,0,0,.076-.528,1.034,1.034,0,0,1,.056-1.135,2.576,2.576,0,0,1,1.351-1.189,1,1,0,0,1,.672,0C785.227,653.1,785.559,653.169,785.718,653.483Z" transform="translate(-751.239 -639.089)" fill="#fec491"/>
        <path id="Path_25186" data-name="Path 25186" d="M808.413,908.17c.331.013.362.314.483.518.5.849,1,1.7,1.494,2.556l-.2.177H808.1a6.84,6.84,0,0,1-1.361-2.382A3.255,3.255,0,0,1,808.413,908.17Z" transform="translate(-773.942 -857.134)" fill="#463b84"/>
        <path id="Path_25187" data-name="Path 25187" d="M813.019,885.023a18.664,18.664,0,0,1-1.93,1.113.3.3,0,0,1-.354-.177c-.406-.636-.772-1.293-1.125-1.958a.25.25,0,0,1,.016-.3,17.44,17.44,0,0,1,1.854-1.1c.387.664.776,1.323,1.157,1.99A.939.939,0,0,0,813.019,885.023Z" transform="translate(-776.356 -835.294)" fill="#def5fc"/>
        <path id="Path_25188" data-name="Path 25188" d="M809.112,652.594h-.673A.547.547,0,0,1,809.112,652.594Z" transform="translate(-775.394 -638.744)" fill="#fdcc9c"/>
        <path id="Path_25189" data-name="Path 25189" d="M677.049,785.3c-.394-.238-.392-.512-.165-.9,1.266-2.155,2.508-4.324,3.757-6.489.09-.156.166-.319.249-.48a3.237,3.237,0,0,1,1.812-.125,1.587,1.587,0,0,1,.729,1.058,19.428,19.428,0,0,1-1.414,2.575c-.584,1.053-1.2,2.082-1.8,3.121-.362.627-.339.7.254,1.075.658.422,1.331.823,1.985,1.252.207.134.462.245.46.56-.5,1.548-.834,1.665-2.21.782-.689-.461-1.411-.875-2.1-1.332A8.063,8.063,0,0,1,677.049,785.3Z" transform="translate(-662.898 -745.301)" fill="#01cffa"/>
        <path id="Path_25190" data-name="Path 25190" d="M616.7,588.328c-.438.035-.875.09-1.3.1a.534.534,0,0,1-.551-.371.552.552,0,0,1,.146-.648,10.744,10.744,0,0,0,3.355-5.905,6.6,6.6,0,0,1,5.153-5.121c.353-.077.716-.1,1.075-.155.236.381-.012.745-.032,1.119a.675.675,0,0,1-.4.35,6.6,6.6,0,0,0-3.754,4.49,15.975,15.975,0,0,1-1.625,4.04,8.63,8.63,0,0,1-1.469,1.751A1.385,1.385,0,0,1,616.7,588.328Z" transform="translate(-609.998 -573.619)" fill="#e7b700"/>
        <path id="Path_25191" data-name="Path 25191" d="M627.85,595.255a9.292,9.292,0,0,0,2.973-4.266c.354-.969.544-1.99.96-2.938a6.587,6.587,0,0,1,3.831-3.711c.252.282.072.656.21.963.028.235.166.465.035.709a18.3,18.3,0,0,0-1.438,3.338c-.222.575-.464,1.142-.655,1.727-.818,2.508-2.7,3.654-5.161,4.085C628.355,595.2,628.1,595.223,627.85,595.255Z" transform="translate(-621.149 -580.546)" fill="#f9c500"/>
        <path id="Path_25192" data-name="Path 25192" d="M693.109,712.01a1.314,1.314,0,0,1-1.546.562c-.416.05-.583-.308-.848-.511a1.646,1.646,0,0,1-.626-1.777c.066-.21-.064-.34-.2-.47-.4-.392-.785-.8-1.2-1.177-.785-.781-1.565-1.564-2.355-2.35-.159.169-.095.339-.1.49v3.983c0,.245.066.516-.166.713-.137-.2-.073-.424-.074-.638,0-1.564-.009-3.128,0-4.692a.9.9,0,0,0-.292-.718c-.583-.566-1.167-1.151-1.739-1.732a2.035,2.035,0,0,1-.089-3.045,3.455,3.455,0,0,1,1.333,1.287,2.934,2.934,0,0,0,.88,1.536c1.866,1.841,3.708,3.706,5.568,5.544a1.293,1.293,0,0,1,.49,1.3,1.181,1.181,0,0,0,.407,1.029C692.755,711.558,693.023,711.71,693.109,712.01Z" transform="translate(-668.463 -679.888)" fill="#febc86"/>
        <path id="Path_25193" data-name="Path 25193" d="M688.824,672.215l-1.234-1.293c.715-.566,1.3-1.269,1.956-1.9a.673.673,0,0,0,.146-.557,5.319,5.319,0,0,1,.08-1.506c.337.385.052.875.2,1.313.611-.594,1.18-1.2,1.786-1.768a1.567,1.567,0,0,1,1.107-.611,2.074,2.074,0,0,1,1.978.474c.074.292-.171.423-.328.583-1.167,1.179-2.334,2.356-3.519,3.516-.317.308-.357.53-.015.845a4.514,4.514,0,0,1,.928,1c-.044.414-.438.57-.643.859-.127.128-.255.257-.391.376a.552.552,0,0,1-.824.015A6.192,6.192,0,0,1,688.824,672.215Z" transform="translate(-672.174 -650.16)" fill="#f1fafe"/>
        <path id="Path_25194" data-name="Path 25194" d="M649.182,902.281h-2.015l-2.918-1.711c.57-.8.988-1.686,1.5-2.517a1.441,1.441,0,0,1,.468-.583c.611.045,1.021.5,1.554.729.179.08.341.2.518.292a2.462,2.462,0,0,1,1.49,2.073A1.755,1.755,0,0,1,649.182,902.281Z" transform="translate(-635.157 -847.995)" fill="#54469b"/>
        <path id="Path_25195" data-name="Path 25195" d="M659.489,832.5l1.624,1.009c.19.273,0,.492-.121.7-.932,1.586-1.844,3.183-2.762,4.778-.111.194-.231.378-.49.379a3.476,3.476,0,0,1-1.57-.961c.566-1.236,1.336-2.356,1.986-3.547C658.589,834.068,659.044,833.286,659.489,832.5Z" transform="translate(-645.338 -792.503)" fill="#febc86"/>
        <path id="Path_25196" data-name="Path 25196" d="M702.64,742.631v-5.5l2.76,2.626a1.926,1.926,0,0,1,.158,1.055,5.209,5.209,0,0,0,.279,2.368.79.79,0,0,1-.875,0l-1.939-.007C702.828,743.038,702.637,742.9,702.64,742.631Z" transform="translate(-685.028 -711.046)" fill="#f36700"/>
        <path id="Path_25197" data-name="Path 25197" d="M705.7,653.407a6.465,6.465,0,0,0-1.813,1.53c-.4.385-.779.789-1.284,1.313v-1.781a3.657,3.657,0,0,1,2.235-3.037,6.175,6.175,0,0,1,2.827-.106c.108.2-.072.181-.175.226A3.159,3.159,0,0,0,705.7,653.407Z" transform="translate(-684.994 -637.661)" fill="#f36700"/>
        <path id="Path_25198" data-name="Path 25198" d="M639.073,891.425c-.54.932-1.081,1.861-1.615,2.8-.086.146-.177.27-.363.276-.191-.1-.387-.194-.57-.306a1.131,1.131,0,0,1-.438-1.7c.373-.68.759-1.354,1.138-2.029a.38.38,0,0,1,.5,0,7.8,7.8,0,0,1,1.345.817.13.13,0,0,1,0,.15Z" transform="translate(-628 -841.923)" fill="#463b84"/>
        <path id="Path_25199" data-name="Path 25199" d="M681.16,573.637c-.162-.324-.025-.674-.09-1.005l.123-1.183a1.534,1.534,0,0,1,1.571-.811c.519.035,1.043.012,1.564.015a5.437,5.437,0,0,0-.74,2.414,1.812,1.812,0,0,1-2.315-.584C681.311,572.874,681.457,573.273,681.16,573.637Z" transform="translate(-666.605 -568.838)" fill="#fc4755"/>
        <path id="Path_25200" data-name="Path 25200" d="M646.977,876.529c-.448-.248-.9-.5-1.347-.745-.146-.082-.292-.217-.49-.137.583-.845.989-1.8,1.6-2.626l1.545.875c.063.045.146.067.159.163A9.151,9.151,0,0,1,646.977,876.529Z" transform="translate(-635.917 -827.112)" fill="#c7eefd"/>
        <path id="Path_25201" data-name="Path 25201" d="M681.666,583.449V582.12a1.843,1.843,0,0,0,1.829.76c.2-.01.4,0,.6,0v1.834c-.365,0-.729.009-1.094,0a1.574,1.574,0,0,1-1.179-.6A1.5,1.5,0,0,1,681.666,583.449Z" transform="translate(-667.11 -578.65)" fill="#fa2c3a"/>
        <path id="Path_25203" data-name="Path 25203" d="M719.25,617.51c.306.079.462.222.232.534Z" transform="translate(-699.215 -608.877)" fill="#f8c510"/>
        <path id="Path_25204" data-name="Path 25204" d="M696.05,709.51c.363.349.729.693,1.088,1.046.535.525.54.527,1.08.02a3.084,3.084,0,0,1,.257-.191,2.288,2.288,0,0,1,1.174,1.1q1.841,1.86,3.675,3.723a.362.362,0,0,0,.477.071,1.031,1.031,0,0,1,.995.071,3.432,3.432,0,0,1,1.112,1.1,1.161,1.161,0,0,1-.252,1.532c-.5.527-1.011,1.043-1.517,1.564a.131.131,0,0,1-.092.026c-.675-.549-1.342-1.082-1.031-2.133.079-.264-.219-.476-.413-.67q-2.938-2.937-5.881-5.881A2.221,2.221,0,0,1,696.05,709.51Z" transform="translate(-679.4 -687.456)" fill="#fdd1a3"/>
        <path id="Path_25205" data-name="Path 25205" d="M708.92,675.469c-.419-.4-.832-.8-1.258-1.195-.292-.264-.048-.407.112-.568q1.862-1.866,3.727-3.733c.146-.146.255-.3.381-.454a2,2,0,0,1,.034,2.986c-.816.845-1.647,1.676-2.471,2.515C709.362,675.28,709.231,675.479,708.92,675.469Z" transform="translate(-689.202 -653.299)" fill="#fefefe"/>
        <path id="Path_25206" data-name="Path 25206" d="M713.279,707.678l.525-.448a4.6,4.6,0,0,1,0,2.309l-1.174-1.1Z" transform="translate(-693.561 -685.508)" fill="#f36701"/>
        <path id="Path_25207" data-name="Path 25207" d="M750.627,597.136v-.655a.743.743,0,0,1,.708-.764.729.729,0,0,1,.834.551,3.209,3.209,0,0,1,0,1.772.727.727,0,0,1-.909.5.68.68,0,0,1-.63-.7c-.012-.235,0-.473,0-.708Z" transform="translate(-726.013 -590.254)" fill="#bb5d4c"/>
        <path id="Path_25208" data-name="Path 25208" d="M726.063,787.8c-1.228.7-1,.852-1.781-.492q-1.459-2.5-2.9-5a1.254,1.254,0,0,1-.467-.512c-.551-.976-1.138-1.933-1.682-2.918a.722.722,0,0,1-.146-.506l-.541-.98.875-.044a1.922,1.922,0,0,1,1.532,0l.769.584a20.537,20.537,0,0,0,1.4,2.508c1.136,2,2.3,3.981,3.455,5.968a1.9,1.9,0,0,0,.5.692A1.182,1.182,0,0,1,726.063,787.8Z" transform="translate(-698.617 -745.258)" fill="#01bff9"/>
        <path id="Path_25209" data-name="Path 25209" d="M770.05,843.924l1.009-.687.651-.337a8.426,8.426,0,0,1,1.215,1.9c.96,1.592,1.872,3.209,2.8,4.823a.53.53,0,0,1,.036.158,3.177,3.177,0,0,1-1.742,1.01C772.645,848.534,771.329,846.239,770.05,843.924Z" transform="translate(-742.604 -801.386)" fill="#febc86"/>
        <path id="Path_25210" data-name="Path 25210" d="M797.26,891.09,799,890.08l.112.009a11.133,11.133,0,0,0,1.459,2.435l-.26.194-1.621.9Z" transform="translate(-765.845 -841.683)" fill="#c7eefd"/>
        <path id="Path_25211" data-name="Path 25211" d="M701.219,785.33l2.3,3.932c-.315,0-.337.292-.438.477-.8,1.367-1.592,2.744-2.385,4.118-.336-.565-.983-.709-1.466-1.075-.333-.251-.7-.458-1.056-.675-.651-.4-.675-.407-.3-1.042C698.994,789.155,700.027,787.2,701.219,785.33Z" transform="translate(-680.747 -752.214)" fill="#62dafa"/>
        <path id="Path_25212" data-name="Path 25212" d="M672.176,840.721l-3.09,5.31a.826.826,0,0,1-.292.385.274.274,0,0,1-.309-.016,6.952,6.952,0,0,1-1.666-1.09l-.109-.12c.5-.111.524-.619.729-.948.852-1.386,1.646-2.807,2.457-4.218a1.063,1.063,0,0,0,.214-.605Z" transform="translate(-654.34 -798.413)" fill="#fdd1a3"/>
        <path id="Path_25213" data-name="Path 25213" d="M723.461,758.574h-1.532a.792.792,0,0,1-.438-.837c.028-.845.012-1.691.013-2.537.3.292.6.572.9.861.327.315.659.566.438,1.167C722.63,757.772,723.116,758.18,723.461,758.574Z" transform="translate(-701.128 -726.48)" fill="#fd7701"/>
        <path id="Path_25214" data-name="Path 25214" d="M659.157,879.8l1.975,1.106c-.378.913-.957,1.716-1.418,2.584l-1.971-1.085q-.009-.042-.013-.085Z" transform="translate(-646.67 -832.902)" fill="#def5fc"/>
      </g>
    </g>
  </g>
</svg>
