<svg xmlns="http://www.w3.org/2000/svg" xmlns:xlink="http://www.w3.org/1999/xlink" width="186" height="170" viewBox="0 0 186 170">
  <defs>
    <filter id="Rectangle_5953" x="0" y="0" width="186" height="170" filterUnits="userSpaceOnUse">
      <feOffset dy="3" input="SourceAlpha"/>
      <feGaussianBlur stdDeviation="3" result="blur"/>
      <feFlood flood-opacity="0.161"/>
      <feComposite operator="in" in2="blur"/>
      <feComposite in="SourceGraphic"/>
    </filter>
  </defs>
  <g id="Group_42393" data-name="Group 42393" transform="translate(-560 6)">
    <g transform="matrix(1, 0, 0, 1, 560, -6)" filter="url(#Rectangle_5953)">
      <rect id="Rectangle_5953-2" data-name="Rectangle 5953" width="168" height="152" rx="8" fill="#ffffffb0" transform="translate(9 6)"/>
    </g>
    <text id="Under_Ground_Drainage" data-name="Under
Ground Drainage" transform="translate(653 103)" fill="#333" font-size="18" font-family="SofiaPro-Regular, Sofia Pro"><tspan x="-25.173" y="0">Under</tspan><tspan x="-72.036" y="26">Ground Drainage</tspan></text>
    <g id="Under_Ground_Drainage-2" data-name="Under Ground Drainage" transform="translate(-3787 -3329)">
      <rect id="Rectangle_5948" data-name="Rectangle 5948" width="56" height="56" transform="translate(4412 3345)" fill="rgba(255,255,255,0)"/>
      <g id="drainage" transform="translate(4412.616 3345.634)">
        <path id="Path_25215" data-name="Path 25215" d="M644.146,778.707a7.99,7.99,0,0,0,.7.713A3.194,3.194,0,0,0,650.112,777c.043-1.3.013-2.627.016-3.941a1.9,1.9,0,0,1,1.164-.694,6.359,6.359,0,0,1,4.439.143,1.693,1.693,0,0,0,1.272.026,8.057,8.057,0,0,1,8.493,1.879,6.013,6.013,0,0,1,.72.856,12.682,12.682,0,0,1,.063,3.03,18.323,18.323,0,0,1-2.07,7.509,19.306,19.306,0,0,1-13.475,10.234c-.66.143-1.339.086-2,.218H645.85a.81.81,0,0,0-.642,0h-.214a16.369,16.369,0,0,1-3.793-.69,18.825,18.825,0,0,1-5.19-2.528.864.864,0,0,1-.453-.562,3.339,3.339,0,0,1-.037-.533V779.072c0-.322-.081-.7.327-.881a6.219,6.219,0,0,1,3.707.963,1.2,1.2,0,0,0,1.235.1,8.27,8.27,0,0,1,2.524-.647A1.113,1.113,0,0,1,644.146,778.707Z" transform="translate(-624.454 -741.525)" fill="#59aafe"/>
        <path id="Path_25217" data-name="Path 25217" d="M921.589,633.351c-.926,0-1.854-.017-2.776,0-.352.01-.44-.094-.439-.442.01-2,0-3.984-.01-5.976a1.06,1.06,0,0,1-.155-.713V611.607a1.055,1.055,0,0,1,.155-.713c0-1.974.024-3.948.007-5.923,0-.4.093-.512.5-.5.905.033,1.814.01,2.722.01Z" transform="translate(-866.839 -597.858)" fill="#3d4566"/>
        <path id="Path_25218" data-name="Path 25218" d="M558.07,715.991h3.2a.889.889,0,0,1,.6-.164h6.854a1.327,1.327,0,0,1,.472.068.379.379,0,0,1,.163.13,7.639,7.639,0,0,1-.061,3.16l-11.226.019Z" transform="translate(-558.053 -693.332)" fill="#fe5959"/>
        <path id="Path_25219" data-name="Path 25219" d="M561.275,765.21H558.07V762H569.3a.443.443,0,0,1,.134.285,14.879,14.879,0,0,1-.053,2.852.328.328,0,0,1-.143.143,1.836,1.836,0,0,1-.736.086h-6.4A1.058,1.058,0,0,1,561.275,765.21Z" transform="translate(-558.053 -732.924)" fill="#e0e5ef"/>
        <path id="Path_25220" data-name="Path 25220" d="M625.54,574.323V558.09h1.6a.979.979,0,0,1,.171.713v14.891a1.573,1.573,0,0,1-.061.528.44.44,0,0,1-.12.171A2.008,2.008,0,0,1,625.54,574.323Z" transform="translate(-615.903 -558.09)" fill="#4d5e7f"/>
        <path id="Path_25221" data-name="Path 25221" d="M636.77,574.32V558.09h1.6v16.233A1.605,1.605,0,0,1,636.77,574.32Z" transform="translate(-625.531 -558.09)" fill="#3d4566"/>
        <path id="Path_25222" data-name="Path 25222" d="M703.51,941.2a.483.483,0,0,1,.642,0Z" transform="translate(-682.755 -886.465)" fill="#83c6fe"/>
        <path id="Path_25223" data-name="Path 25223" d="M763.817,649.509q.008,4.691.017,9.38c0,2.22-.011,4.44-.017,6.662H755.7a1.577,1.577,0,0,0-1.7,1.688q-.009,1.522-.019,3.043a8.5,8.5,0,0,0-3.963-2.765,7.875,7.875,0,0,0-5.317.168,1.24,1.24,0,0,1-1-.017,6.231,6.231,0,0,0-5.727.349,17.8,17.8,0,0,1,2.009-9.032,17.988,17.988,0,0,1,2.6-3.682,17.4,17.4,0,0,1,5.276-3.977,16.329,16.329,0,0,1,6.052-1.7c3.019-.232,6.043-.041,9.063-.1C763.248,649.508,763.533,649.51,763.817,649.509Z" transform="translate(-712.292 -636.47)" fill="#e0e5ef"/>
        <path id="Path_25224" data-name="Path 25224" d="M635.7,671.91h1.607a21.662,21.662,0,0,1,2.6.111,4.8,4.8,0,0,1,3.814,4.668c0,.55.007,1.1.01,1.648a.881.881,0,0,1-.7.175q-3.308.01-6.618,0a1,1,0,0,1-.713-.171h0a.971.971,0,0,1-.171-.7v-4.991a.9.9,0,0,1,.172-.7Z" transform="translate(-624.463 -655.68)" fill="#cb1f58"/>
        <path id="Path_25225" data-name="Path 25225" d="M644.156,788.327a8.92,8.92,0,0,0-3.742.877c-.274.134-.428-.017-.62-.143a7.119,7.119,0,0,0-3.753-1.162c-.133-.088-.352.017-.428-.194a26.262,26.262,0,0,1-.071-3.265,1.474,1.474,0,0,1,.164-1.018h0a.985.985,0,0,1,.713-.17h6.611a.885.885,0,0,1,.7.174v3.225A4.72,4.72,0,0,0,644.156,788.327Z" transform="translate(-624.464 -751.145)" fill="#e0e5ef"/>
        <path id="Path_25226" data-name="Path 25226" d="M636.79,717h8.028c.924,0,1.854.014,2.772,0,.3,0,.446.043.428.4-.029.816-.019,1.634,0,2.451,0,.269-.061.369-.352.369q-5.437-.023-10.876-.024Q636.791,718.6,636.79,717Z" transform="translate(-625.549 -694.341)" fill="#e53a57"/>
        <path id="Path_25227" data-name="Path 25227" d="M644.821,765.2H636.8V762q5.358,0,10.714-.013c.394,0,.532.1.516.508-.03.746-.027,1.493,0,2.239.014.384-.128.483-.492.475C646.633,765.185,645.726,765.2,644.821,765.2Z" transform="translate(-625.557 -732.916)" fill="#ced6e5"/>
        <path id="Path_25228" data-name="Path 25228" d="M593.432,814.556a.466.466,0,0,1,.337.1c-.348-.016-.338.218-.337.464V828.98a19.1,19.1,0,0,1-7.184-9.939,1.07,1.07,0,0,1,.242-.894,8,8,0,0,1,6.113-3.622C592.878,814.507,593.164,814.347,593.432,814.556Z" transform="translate(-582.192 -777.895)" fill="#66cbfe"/>
        <path id="Path_25229" data-name="Path 25229" d="M782.665,808.1c.066-.419-.232-1.067.12-1.4.321-.3.951-.071,1.445-.09.408-.016.818.014,1.225-.009.335-.019.428.121.428.436-.016.781-.017,1.568,0,2.346,0,.317-.091.443-.428.436-.8-.019-1.6-.016-2.4,0-.307,0-.406-.117-.395-.409C782.675,809,782.665,808.593,782.665,808.1Z" transform="translate(-750.575 -771.117)" fill="#4d86fe"/>
        <path id="Path_25230" data-name="Path 25230" d="M647.64,853.037c.038-.408-.21-1.042.091-1.359.328-.347.975-.113,1.482-.113s1.2-.237,1.536.11c.315.322.076.982.094,1.493.016.408,0,.818,0,1.226.01.285-.106.374-.378.371-.817-.01-1.634-.014-2.451,0-.318,0-.4-.143-.385-.419C647.656,853.94,647.64,853.53,647.64,853.037Z" transform="translate(-634.8 -809.651)" fill="#4d86fe"/>
        <path id="Path_25231" data-name="Path 25231" d="M718.331,876.079c-.04.428.218,1.084-.093,1.41-.337.355-1.01.113-1.533.115s-1.154.231-1.486-.108c-.307-.314-.074-.948-.093-1.442-.016-.428.007-.856,0-1.283-.01-.278.1-.375.376-.372.817.011,1.634.014,2.451,0,.317,0,.4.143.385.419C718.319,875.211,718.331,875.6,718.331,876.079Z" transform="translate(-692.658 -829.296)" fill="#4d86fe"/>
        <path id="Path_25232" data-name="Path 25232" d="M588.538,672v6.4H580.51a20.866,20.866,0,0,1,.1-2.5,4.821,4.821,0,0,1,4.512-3.9c.6-.02,1.208-.017,1.811-.024Z" transform="translate(-577.294 -655.732)" fill="#e53a57"/>
        <path id="Path_25233" data-name="Path 25233" d="M588.568,788.886a8.819,8.819,0,0,0-4.666,1.473,8.4,8.4,0,0,0-2.212,2.289,1.315,1.315,0,0,0-.3.727,21.384,21.384,0,0,1-.749-3.927c-.154-1.648-.03-3.292-.09-4.938h8.018Z" transform="translate(-577.328 -752.224)" fill="#f2f4f8"/>
      </g>
    </g>
  </g>
</svg>
