<svg xmlns="http://www.w3.org/2000/svg" xmlns:xlink="http://www.w3.org/1999/xlink" width="186" height="170" viewBox="0 0 186 170">
  <defs>
    <filter id="Rectangle_5954" x="0" y="0" width="186" height="170" filterUnits="userSpaceOnUse">
      <feOffset dy="3" input="SourceAlpha"/>
      <feGaussianBlur stdDeviation="3" result="blur"/>
      <feFlood flood-opacity="0.161"/>
      <feComposite operator="in" in2="blur"/>
      <feComposite in="SourceGraphic"/>
    </filter>
  </defs>
  <g id="Group_42394" data-name="Group 42394" transform="translate(-755 6)">
    <g transform="matrix(1, 0, 0, 1, 755, -6)" filter="url(#Rectangle_5954)">
      <rect id="Rectangle_5954-2" data-name="Rectangle 5954" width="168" height="152" rx="8" fill="#ffffffb0" transform="translate(9 6)"/>
    </g>
    <text id="Bore_Wells" data-name="Bore
Wells" transform="translate(848 103)" fill="#333" font-size="18" font-family="SofiaPro-Regular, Sofia Pro"><tspan x="-19.242" y="0">Bore</tspan><tspan x="-20.943" y="26">Wells</tspan></text>
    <g id="Bore_Wells-2" data-name="Bore Wells" transform="translate(-3392 -3445)">
      <rect id="Rectangle_5945" data-name="Rectangle 5945" width="56" height="56" transform="translate(4212 3461)" fill="rgba(255,255,255,0)"/>
      <g id="water-well" transform="translate(4212.02 3461)">
        <path id="Path_25128" data-name="Path 25128" d="M772.3,825.586h-23.4a.491.491,0,0,1-.146-.292,18.7,18.7,0,0,1,.019-2.8.4.4,0,0,1,.094-.193,1.165,1.165,0,0,1,.833-.172h4.2c.834,0,.836,0,.837-.861,0-.492-.013-.983,0-1.473.016-.446-.175-.607-.616-.6-1.473.013-2.947.01-4.419,0a1.189,1.189,0,0,1-.836-.169,1.23,1.23,0,0,1-.146-.789v-8.249a1.289,1.289,0,0,1,.146-.794,1.1,1.1,0,0,1,.826-.184h4.347c.662,0,.7-.044.7-.716v-1.74a1.044,1.044,0,0,1,.146-.677.821.821,0,0,1,.515-.146c.76-.013,1.52-.012,2.28,0a.89.89,0,0,1,.518.13.959.959,0,0,1,.163.673c.009.583,0,1.167,0,1.75,0,.694.036.729.751.729h10.147c.744,0,.775-.035.78-.759v-1.691a1.048,1.048,0,0,1,.146-.681.729.729,0,0,1,.46-.146c.816-.019,1.629-.021,2.445,0a.717.717,0,0,1,.411.124,1.04,1.04,0,0,1,.163.729v17.262A1.558,1.558,0,0,1,772.3,825.586Z" transform="translate(-720.901 -769.59)" fill="#8e4c19"/>
        <path id="Path_25129" data-name="Path 25129" d="M604.885,822.358v3.263h-23.4a1.657,1.657,0,0,1-1.373-1.875q-.014-8.552,0-17.1a1.125,1.125,0,0,1,.146-.729.73.73,0,0,1,.46-.139c.816-.018,1.631-.021,2.445,0a.73.73,0,0,1,.411.123.965.965,0,0,1,.162.672c.009.565,0,1.128,0,1.692,0,.762.022.778.807.783h9.931c.942,0,.942,0,.945-.923V806.6a1.048,1.048,0,0,1,.146-.681.809.809,0,0,1,.514-.146c.776-.013,1.552-.015,2.334,0a.827.827,0,0,1,.465.121,1,1,0,0,1,.171.729c.009.583,0,1.167,0,1.742,0,.643.044.687.674.69h4.3a1.541,1.541,0,0,1,.8.111l.07.079v9.807c-.023.025-.047.05-.068.076a1.518,1.518,0,0,1-.8.111h-4.311c-.611,0-.658.053-.665.648,0,.563.016,1.128,0,1.691-.017.454.181.6.617.6,1.459-.012,2.909,0,4.365,0a1.534,1.534,0,0,1,.8.111Z" transform="translate(-576.895 -769.626)" fill="#b85d2e"/>
        <path id="Path_25130" data-name="Path 25130" d="M773.512,748.357h-3.291a1,1,0,0,1-.729.177H758.909a1.013,1.013,0,0,1-.729-.177H754.9a.929.929,0,0,1-.668.175h-4.681a1.024,1.024,0,0,1-.675-.158,1.149,1.149,0,0,1-.166-.783v-8.357a1.134,1.134,0,0,1,.146-.729.837.837,0,0,1,.569-.155c4.732,0,9.466-.025,14.2.01,1.094-.018,2.188-.023,3.282,0q4.123-.029,8.244,0a1.542,1.542,0,0,1,1.737,1.365v7.44a1.568,1.568,0,0,1-1.731,1.338A3.244,3.244,0,0,1,773.512,748.357Z" transform="translate(-720.905 -712.044)" fill="#b85d2e"/>
        <path id="Path_25131" data-name="Path 25131" d="M586,738.407v9.82l-.077.074a1.4,1.4,0,0,1-.693.1h-4.471a1.082,1.082,0,0,1-.779-.172H576.7a1.014,1.014,0,0,1-.729.175H565.391a1.028,1.028,0,0,1-.729-.175h-3.29a3.607,3.607,0,0,1-2.789-.207c-.4-.223-.461-.627-.592-1v-7.44a1.649,1.649,0,0,1,1.825-1.367c2.715-.009,5.431-.017,8.147,0q1.64-.034,3.281,0c2.626-.038,5.243-.01,7.864-.016h6.063C585.466,738.216,585.773,738.159,586,738.407Z" transform="translate(-558.01 -711.923)" fill="#db7d41"/>
        <path id="Path_25132" data-name="Path 25132" d="M627.374,558.07c.312.292.794.353.975.826a2.564,2.564,0,0,1,.235.992c-.017.856,0,1.713,0,2.568a.823.823,0,0,1,.168.616c0,.89.019,1.781-.009,2.671.036,1.167.015,2.334.015,3.491V583.58c0,.319.071.661-.175.94H625.3v-18.8a.622.622,0,0,1-.159-.445q-.031-1.183,0-2.369a.624.624,0,0,1,.159-.446c0-.674.044-1.351,0-2.021a2.1,2.1,0,0,1,1.212-2.365Z" transform="translate(-615.351 -558.07)" fill="#dbf1fe"/>
        <path id="Path_25133" data-name="Path 25133" d="M850.141,562.454c0-.691.045-1.386,0-2.074a2.065,2.065,0,0,1,1.214-2.309h.875a2.067,2.067,0,0,1,1.212,2.309c-.051.689,0,1.383,0,2.074a.636.636,0,0,1,.16.446q.029,1.186,0,2.372a.641.641,0,0,1-.16.446v18.8h-3.3a.787.787,0,0,1-.172-.613c0-6.053-.025-12.108.012-18.158-.028-.9-.012-1.793-.009-2.688A.794.794,0,0,1,850.141,562.454Z" transform="translate(-807.391 -558.07)" fill="#c0e0f9"/>
        <path id="Path_25136" data-name="Path 25136" d="M813.607,807h12.029c0,.929-.013,1.857,0,2.785.009.366-.085.506-.481.5q-5.544-.019-11.087,0c-.4,0-.49-.139-.481-.5C813.62,808.853,813.607,807.925,813.607,807Z" transform="translate(-776.32 -770.686)" fill="#db7d41"/>
        <path id="Path_25137" data-name="Path 25137" d="M767.171,855.147c-1.822,0-3.647-.012-5.466,0-.4,0-.55-.09-.532-.514.034-.764.022-1.53,0-2.295-.009-.333.058-.489.438-.489q5.576.02,11.152,0c.322,0,.455.083.446.429-.02.8-.023,1.6,0,2.4.012.368-.123.462-.473.46C770.888,855.138,769.023,855.147,767.171,855.147Z" transform="translate(-731.551 -808.994)" fill="#db7d41"/>
        <path id="Path_25138" data-name="Path 25138" d="M819.771,896.88c1.822,0,3.647.012,5.466-.01.413,0,.535.12.519.527-.029.782-.018,1.567,0,2.35,0,.292-.082.42-.4.419q-5.631-.012-11.262,0c-.292,0-.382-.1-.378-.384.012-.82.022-1.64,0-2.46-.012-.381.146-.449.484-.446C816.052,896.889,817.912,896.88,819.771,896.88Z" transform="translate(-776.431 -847.446)" fill="#db7d41"/>
        <path id="Path_25139" data-name="Path 25139" d="M748.908,806.94h6.01c0,.944-.015,1.888,0,2.83.009.366-.122.459-.47.458-1.851-.009-3.7,0-5.543.012V810.2a.42.42,0,0,1-.146-.283,22.928,22.928,0,0,1,0-2.68.47.47,0,0,1,.146-.292Z" transform="translate(-720.918 -770.635)" fill="#db7d41"/>
        <path id="Path_25140" data-name="Path 25140" d="M748.979,896.82c1.818,0,3.637.028,5.456,0,.467,0,.583.146.567.584-.035.708-.035,1.419,0,2.127.021.438-.1.594-.567.584-1.819-.021-3.638,0-5.456,0v-.035a.486.486,0,0,1-.146-.341q-.057-1.282,0-2.563a.481.481,0,0,1,.146-.341Z" transform="translate(-720.989 -847.404)" fill="#db7d41"/>
        <path id="Path_25141" data-name="Path 25141" d="M868.308,855.2c-.583,0-1.167-.009-1.751,0-.274,0-.392-.08-.388-.373.013-.855.01-1.711,0-2.567,0-.264.106-.347.359-.346q1.829.01,3.662,0c.25,0,.362.08.359.344-.009.856-.012,1.713,0,2.569,0,.292-.111.379-.387.373C869.547,855.188,868.927,855.2,868.308,855.2Z" transform="translate(-821.232 -809.045)" fill="#db7d41"/>
        <path id="Path_25142" data-name="Path 25142" d="M603.729,807h12.032c0,.928-.015,1.856,0,2.782.009.368-.086.508-.483.506q-5.543-.019-11.078,0c-.4,0-.492-.139-.483-.506C603.743,808.853,603.729,807.925,603.729,807Z" transform="translate(-597.066 -770.686)" fill="#e5925c"/>
        <path id="Path_25143" data-name="Path 25143" d="M662.352,851.94c1.822,0,3.647.01,5.465-.009.4,0,.549.1.531.516-.032.764-.022,1.53,0,2.295.009.337-.068.486-.448.486q-5.576-.019-11.15,0c-.324,0-.454-.089-.438-.438.021-.8.023-1.6,0-2.4-.012-.371.131-.458.477-.457C658.635,851.94,660.5,851.94,662.352,851.94Z" transform="translate(-641.988 -809.062)" fill="#e5925c"/>
        <path id="Path_25144" data-name="Path 25144" d="M609.729,900.178c-1.822,0-3.647-.012-5.466.009-.4,0-.549-.1-.531-.516.032-.764.022-1.53,0-2.295,0-.337.068-.487.448-.486q5.575.018,11.15,0c.324,0,.455.088.446.438-.02.8-.023,1.6,0,2.406.012.369-.13.459-.476.457C613.445,900.171,611.586,900.178,609.729,900.178Z" transform="translate(-597.078 -847.463)" fill="#e5925c"/>
        <path id="Path_25145" data-name="Path 25145" d="M714.749,806.974v3.257c-1.869,0-3.736,0-5.6.025-.356,0-.42-.146-.416-.458.013-.942,0-1.886,0-2.829Z" transform="translate(-686.759 -770.661)" fill="#e5925c"/>
        <path id="Path_25146" data-name="Path 25146" d="M714.749,896.923v3.246c-1.873,0-3.746,0-5.619.022-.317,0-.406-.12-.4-.417q.022-1.228,0-2.455c0-.292.084-.42.4-.419C711,896.915,712.876,896.915,714.749,896.923Z" transform="translate(-686.759 -847.472)" fill="#e5925c"/>
        <path id="Path_25147" data-name="Path 25147" d="M606.008,852c.583,0,1.167.012,1.75,0,.3-.009.419.1.413.409q-.024,1.228,0,2.457c0,.292-.069.438-.394.426q-1.8-.019-3.6,0c-.28,0-.388-.094-.384-.379.012-.837.015-1.675,0-2.512,0-.321.127-.406.422-.4C604.809,852,605.41,852,606.008,852Z" transform="translate(-597.128 -809.119)" fill="#e5925c"/>
        <path id="Path_25149" data-name="Path 25149" d="M873.73,591.351v-3.265c1.275,0,2.552-.013,3.827,0a1.638,1.638,0,0,1,0,3.276C876.281,591.362,875,591.353,873.73,591.351Z" transform="translate(-827.69 -583.702)" fill="#414664"/>
        <path id="Path_25150" data-name="Path 25150" d="M568.66,588.04v3.26c-.583,0-1.167.032-1.751,0-.375-.019-.454.123-.438.465.023.709.012,1.419,0,2.13a1.648,1.648,0,0,1-1.759,1.787q-2.074.012-4.152,0a1.642,1.642,0,1,1,0-3.278c.747,0,1.494-.016,2.239,0,.314.009.406-.09.4-.4-.022-.745-.013-1.492,0-2.239a1.645,1.645,0,0,1,1.751-1.74C566.184,588.021,567.421,588.037,568.66,588.04Z" transform="translate(-558.719 -583.655)" fill="#5a697d"/>
        <path id="Path_25151" data-name="Path 25151" d="M661.916,591.334l-13.106-.012v-3.26l13.106-.012A6.624,6.624,0,0,1,661.916,591.334Z" transform="translate(-635.581 -583.677)" fill="#5a697d"/>
        <path id="Path_25152" data-name="Path 25152" d="M785.85,578.5a6.593,6.593,0,0,1-.041.814,1.634,1.634,0,0,1-3.068.483c-.067-.112-.016-.372-.292-.306a.385.385,0,0,1-.095-.3q.057-2.334,0-4.668a.381.381,0,0,1,.1-.3c.2.063.185-.106.239-.208a1.66,1.66,0,0,1,1.835-.951,1.684,1.684,0,0,1,1.313,1.717c0,.146.01.292.015.438a.7.7,0,0,1,.146.452q.026,1.19,0,2.379a.7.7,0,0,1-.149.452Z" transform="translate(-749.642 -570.837)" fill="#b85d2e"/>
        <path id="Path_25153" data-name="Path 25153" d="M763.4,574.332a30.814,30.814,0,0,1,.1,3.918,4.078,4.078,0,0,1-.1,1.349,1.592,1.592,0,0,1-3.081,0,.826.826,0,0,1-.267-.729c-.012-1.266-.009-2.532,0-3.793a.926.926,0,0,1,.267-.741,1.594,1.594,0,0,1,3.083-.009Z" transform="translate(-730.591 -570.95)" fill="#8e4c19"/>
        <path id="Path_25154" data-name="Path 25154" d="M806.33,591.335V588.05l6.543.01v3.265Z" transform="translate(-770.122 -583.677)" fill="#414664"/>
        <path id="Path_25155" data-name="Path 25155" d="M750.717,574.367a33.09,33.09,0,0,0-.1,4.044,3.6,3.6,0,0,0,.1,1.23c-.21.292-.085.624-.093.937-.02.81-.009,1.621-.01,2.43a1.8,1.8,0,0,1-1.663.01,1.248,1.248,0,0,1-.146-.791v-8.257a1,1,0,0,1,.178-.776,1.568,1.568,0,0,1,1.459.84C750.507,574.156,750.469,574.391,750.717,574.367Z" transform="translate(-720.988 -570.987)" fill="#b85d2e"/>
        <path id="Path_25156" data-name="Path 25156" d="M740.306,573.2V583l-.067.077a2,2,0,0,1-1.567-.064l-.022-4.366v-3.284a3.788,3.788,0,0,1,.124-1.115A1.581,1.581,0,0,1,740.306,573.2Z" transform="translate(-712.315 -570.993)" fill="#db7d41"/>
        <path id="Path_25157" data-name="Path 25157" d="M755.31,661.975q-.3,2.188-.6,4.376c-.086.611-.175,1.222-.271,1.832a1.617,1.617,0,0,1-1.692,1.45c-1.256,0-2.514-.01-3.771-.016a.926.926,0,0,1-.178-.718v-6.2a1.113,1.113,0,0,1,.155-.729,1.041,1.041,0,0,1,.729-.169q2.455-.009,4.91,0A.949.949,0,0,1,755.31,661.975Z" transform="translate(-720.983 -646.668)" fill="#3295f4"/>
        <path id="Path_25158" data-name="Path 25158" d="M712.88,662.018v7.616c-1.291,0-2.582.026-3.872.009a1.6,1.6,0,0,1-1.581-1.393c-.309-2.082-.594-4.168-.887-6.252a.633.633,0,0,1,.5-.166c1.8-.01,3.6-.02,5.4,0a.892.892,0,0,1,.268.051.337.337,0,0,1,.169.136Z" transform="translate(-684.89 -646.684)" fill="#48b7fe"/>
        <path id="Path_25159" data-name="Path 25159" d="M755.311,643.663l-6.338.021v-.042a.472.472,0,0,1-.146-.34q-.055-1.28,0-2.56a.476.476,0,0,1,.146-.34v-.041l1.637.01c1.36,0,2.721.047,4.085,0a1.726,1.726,0,0,1,1.917,1.313C756.8,642.55,756.328,643.256,755.311,643.663Z" transform="translate(-720.984 -628.356)" fill="#a2c7ea"/>
        <path id="Path_25160" data-name="Path 25160" d="M705.269,640.518v3.24l-6.338.022a2.048,2.048,0,0,1-1.122-.888,1.626,1.626,0,0,1,1.459-2.391c1.459-.015,2.917,0,4.368-.01Z" transform="translate(-677.279 -628.467)" fill="#c0e0f9"/>
      </g>
    </g>
  </g>
</svg>
