<svg xmlns="http://www.w3.org/2000/svg" xmlns:xlink="http://www.w3.org/1999/xlink" width="186" height="170" viewBox="0 0 186 170">
  <defs>
    <filter id="Rectangle_5952" x="0" y="0" width="186" height="170" filterUnits="userSpaceOnUse">
      <feOffset dy="3" input="SourceAlpha"/>
      <feGaussianBlur stdDeviation="3" result="blur"/>
      <feFlood flood-opacity="0.161"/>
      <feComposite operator="in" in2="blur"/>
      <feComposite in="SourceGraphic"/>
    </filter>
  </defs>
  <g id="Group_42392" data-name="Group 42392" transform="translate(-373 6)">
    <g transform="matrix(1, 0, 0, 1, 373, -6)" filter="url(#Rectangle_5952)">
      <rect id="Rectangle_5952-2" data-name="Rectangle 5952" width="168" height="152" rx="8" fill="#ffffffb0" transform="translate(9 6)"/>
    </g>
    <text id="Water_Electricity" data-name="Water &amp;
Electricity" transform="translate(466 103)" fill="#333" font-size="18" font-family="SofiaPro-Regular, Sofia Pro"><tspan x="-32.4" y="0">Water &amp;</tspan><tspan x="-39.42" y="26">Electricity</tspan></text>
    <g id="water_and_electricity" data-name="water and electricity" transform="translate(-3706 -3439)">
      <rect id="Rectangle_5944" data-name="Rectangle 5944" width="56" height="56" transform="translate(4144 3455)" fill="rgba(255,255,255,0)"/>
      <g id="electric" transform="translate(4147.119 3454.998)">
        <path id="Path_25118" data-name="Path 25118" d="M612.133,630.618l.452.57c-.065.291-.3.474-.452.7a17.3,17.3,0,0,0-3.4,7.55,9.561,9.561,0,0,0,2.178,7.8,13.524,13.524,0,0,0,3.333,2.936,13.366,13.366,0,0,0,4.725,1.638,15.371,15.371,0,0,0,5.5.059,1.146,1.146,0,0,1,.336,0,14.806,14.806,0,0,1,.531,6.354,20.007,20.007,0,0,1-5.945,12.065,21.466,21.466,0,0,1-12.668,6.146,21.769,21.769,0,0,1-16.57-4.4,19.872,19.872,0,0,1-8.011-14.413,11.447,11.447,0,0,1,.133-3.814A9.645,9.645,0,0,1,583.7,651.4a38.152,38.152,0,0,1,5.033-5.636c.151-.151.312-.353.582-.216a.783.783,0,0,1,.125.424.725.725,0,0,0,.6.659.754.754,0,0,0,.822-.356c.476-.716.923-1.452,1.378-2.184q.739-1.191,1.484-2.381a2.981,2.981,0,0,1,.4-.421,109.686,109.686,0,0,1,12.83-8.108c1.482-.816,2.976-1.614,4.5-2.36C611.664,630.712,611.863,630.54,612.133,630.618Z" transform="translate(-582.05 -620.635)" fill="#8cc53f"/>
        <path id="Path_25119" data-name="Path 25119" d="M797.629,631.657a9.726,9.726,0,0,1-5.922,4.616c-.2.059-.4.1-.6.151a4.077,4.077,0,0,1-2.146.335,10.167,10.167,0,0,1-10-9.427,6.777,6.777,0,0,1,.3-2.564,20.867,20.867,0,0,1,1.552-3.755c.139-.261.246-.557.557-.682q1.4-2.175,2.792-4.343c.11-.174.24-.333.359-.5.213-.139.351.024.5.127a41.491,41.491,0,0,1,6.916,5.924,27.165,27.165,0,0,1,2.906,3.654c.142.217.407.433.172.754-1.035.063-1.19.216-1.294,1.274a4.567,4.567,0,0,1-4.158,4.134,3.64,3.64,0,0,0-.6.107.741.741,0,0,0-.618.811.79.79,0,0,0,.825.624,6.213,6.213,0,0,0,6.088-5.793.683.683,0,0,1,.232-.554c.191-.027.265.118.336.244a17.239,17.239,0,0,1,1.81,4.524A1.393,1.393,0,0,1,797.629,631.657Z" transform="translate(-749.244 -607.759)" fill="#fedd17"/>
        <path id="Path_25120" data-name="Path 25120" d="M590.547,589.471c-.17-.009-.27.11-.379.213a34.325,34.325,0,0,0-6.514,7.918.705.705,0,0,1-.115.119,14.346,14.346,0,0,1,1.127-4.048,63.168,63.168,0,0,1,7.017-12.51c2.485-3.63,5.18-7.1,7.981-10.491q2.488-3.022,5.107-5.942c.211-.234.288-.24.5,0,2.749,3.04,5.349,6.2,7.883,9.424a4.478,4.478,0,0,1,.24.38c-3.417,1.7-6.786,3.511-10.047,5.491-2.547,1.547-5.046,3.193-7.461,4.954-.151.11-.314.2-.472.3-.151-.231.029-.389.128-.557.314-.534.665-1.045.976-1.582s.258-.946-.118-1.2a.824.824,0,0,0-1.182.385c-1.206,1.9-2.39,3.82-3.583,5.731-.14.223-.277.452-.428.662C590.977,588.965,591.032,589.457,590.547,589.471Z" transform="translate(-583.317 -564.55)" fill="#bedb97"/>
        <path id="Path_25121" data-name="Path 25121" d="M829.036,598.927c-.288-.849-.555-1.706-.872-2.543a13.573,13.573,0,0,0-1.279-2.564.846.846,0,0,1-.453-.664,7.122,7.122,0,0,0-1.347-2.06,39.87,39.87,0,0,0-9-8.295.507.507,0,0,0-.163-.044,58.458,58.458,0,0,1,3.612-4.9l.312-.4c.593-.754.6-.754,1.195-.021a79.155,79.155,0,0,1,6.762,9.577,17.192,17.192,0,0,1,2.52,6.055A8.4,8.4,0,0,1,829.036,598.927Z" transform="translate(-780.651 -575.029)" fill="#f7e783"/>
        <path id="Path_25122" data-name="Path 25122" d="M762.824,636.518a23.553,23.553,0,0,0-1.739,3.77,8.542,8.542,0,0,0,.9,7.654,9.715,9.715,0,0,0,7.108,4.751,12.614,12.614,0,0,0,3.469-.077,12.971,12.971,0,0,1,.891,2.564,3.044,3.044,0,0,1-1.674.335,18.131,18.131,0,0,1-5.951-.639,12.283,12.283,0,0,1-5.743-3.482,10.082,10.082,0,0,1-2.909-5.774,11.6,11.6,0,0,1,.838-5.815,22.068,22.068,0,0,1,2.813-4.925,2.879,2.879,0,0,1,.41-.377Z" transform="translate(-730.703 -623.949)" fill="#84b124"/>
        <path id="Path_25123" data-name="Path 25123" d="M669.845,702.959H659.9L673.372,685l.086.05q-.974,4.877-1.95,9.755c-.2,1.012-.4,2.024-.618,3.033-.092.421-.065.6.475.6,3.126-.032,6.254-.015,9.382-.015h.86l-16.929,17.818-.118-.06C666.314,711.795,668.067,707.406,669.845,702.959Z" transform="translate(-648.161 -666.833)" fill="#fedd17"/>
        <path id="Path_25124" data-name="Path 25124" d="M633.74,684.973q2.022-3.248,4.048-6.5a.91.91,0,0,1,1.342-.359.923.923,0,0,1,.18,1.348,22.186,22.186,0,0,0-1.264,2.111l-.326.345a33.087,33.087,0,0,1-2.534,2.131,9.2,9.2,0,0,1-1.078.9C634,685.029,633.871,685.234,633.74,684.973Z" transform="translate(-625.946 -660.847)" fill="#deedcb"/>
        <path id="Path_25125" data-name="Path 25125" d="M630.611,707.365a2.456,2.456,0,0,0,.952-.664,34.124,34.124,0,0,1,3.028-2.381c-.961,1.561-1.914,3.126-2.885,4.675a.831.831,0,0,1-.985.365.857.857,0,0,1-.665-.869v-.338C630.427,708.028,630.3,707.541,630.611,707.365Z" transform="translate(-622.817 -683.239)" fill="#c5e29e"/>
        <path id="Path_25126" data-name="Path 25126" d="M846.884,684.178a2.242,2.242,0,0,1,.453.665,7.512,7.512,0,0,1-.8,3.137,6.394,6.394,0,0,1-5.609,3.393.959.959,0,0,1-.923-.836.864.864,0,0,1,.778-.934,5.626,5.626,0,0,0,2.8-.9,4.4,4.4,0,0,0,1.847-3.276c.009-.112.039-.223.044-.335A.957.957,0,0,1,846.884,684.178Z" transform="translate(-801.098 -666.05)" fill="#feee8a"/>
        <path id="Path_25127" data-name="Path 25127" d="M672.917,646.773a.893.893,0,0,1-.813-1.31c.581-.961,1.206-1.9,1.861-2.81a.892.892,0,0,1,1.514.928c-.6.986-1.264,1.947-1.917,2.9A.754.754,0,0,1,672.917,646.773Z" transform="translate(-658.425 -630.566)" fill="#deedcb"/>
      </g>
    </g>
  </g>
</svg>
