<svg xmlns="http://www.w3.org/2000/svg" width="17.79" height="17.791" viewBox="0 0 17.79 17.791">
  <g id="Instagram_-_grey" data-name="Instagram - grey" transform="translate(-1133.095 -70.96)">
    <path id="Path_20637" data-name="Path 20637" d="M623.889,1894.13a1.649,1.649,0,1,1-1.646-1.649A1.649,1.649,0,0,1,623.889,1894.13Z" transform="translate(519.792 -1814.286)" fill="#979797"/>
    <path id="Path_20638" data-name="Path 20638" d="M619.253,1884.94h-4.166a2.15,2.15,0,0,0-2.147,2.15v4.163a2.154,2.154,0,0,0,2.147,2.154h4.166a2.157,2.157,0,0,0,2.154-2.154v-4.163a2.154,2.154,0,0,0-2.154-2.15Zm-2.037,6.8a2.572,2.572,0,1,1,2.568-2.568,2.572,2.572,0,0,1-2.568,2.568Zm2.716-4.7a.614.614,0,1,1,.614-.614.614.614,0,0,1-.614.614Z" transform="translate(524.819 -1809.331)" fill="#979797"/>
    <path id="Path_20639" data-name="Path 20639" d="M608.235,1871.38a8.9,8.9,0,1,0,8.9,8.9A8.9,8.9,0,0,0,608.235,1871.38Zm5.216,10.973a3.138,3.138,0,0,1-3.134,3.135H606.15a3.138,3.138,0,0,1-3.131-3.135v-4.163a3.138,3.138,0,0,1,3.131-3.134h4.167a3.138,3.138,0,0,1,3.134,3.134Z" transform="translate(533.755 -1800.421)" fill="#979797"/>
  </g>
</svg>
