<svg xmlns="http://www.w3.org/2000/svg" width="17.781" height="17.781" viewBox="0 0 17.781 17.781">
  <path id="linkedin_-_grey" data-name="linkedin - grey" d="M8.891,0a8.891,8.891,0,1,0,8.891,8.891A8.892,8.892,0,0,0,8.891,0ZM6.307,13.44H4.142V6.926H6.307Zm-1.083-7.4H5.21a1.129,1.129,0,1,1,.028-2.251,1.129,1.129,0,1,1-.014,2.251Zm8.89,7.4H11.95V9.955c0-.876-.314-1.473-1.1-1.473a1.185,1.185,0,0,0-1.111.792,1.483,1.483,0,0,0-.071.528V13.44H7.505s.028-5.9,0-6.514H9.671v.922a2.15,2.15,0,0,1,1.951-1.075c1.425,0,2.493.931,2.493,2.932Zm0,0" fill="#979797"/>
</svg>
