<svg id="phone" xmlns="http://www.w3.org/2000/svg" width="18" height="18" viewBox="0 0 18 18">
  <rect id="Rectangle_18" data-name="Rectangle 18" width="18" height="18" fill="rgba(255,255,255,0)"/>
  <g id="phone-call_3_" data-name="phone-call (3)" transform="translate(0 0)">
    <g id="Group_1" data-name="Group 1" transform="translate(0 0)">
      <path id="Path_2" data-name="Path 2" d="M18.03,13.21,15.518,10.7a1.671,1.671,0,0,0-2.781.628A1.709,1.709,0,0,1,10.764,12.4,7.746,7.746,0,0,1,6.1,7.738,1.626,1.626,0,0,1,7.175,5.764,1.671,1.671,0,0,0,7.8,2.983L5.291.471a1.792,1.792,0,0,0-2.422,0l-1.7,1.7c-1.7,1.794.179,6.549,4.4,10.766s8.971,6.19,10.766,4.4l1.7-1.7A1.792,1.792,0,0,0,18.03,13.21Z" transform="translate(-0.539 0)" fill="#6ca100"/>
    </g>
  </g>
</svg>
