<svg xmlns="http://www.w3.org/2000/svg" width="30" height="30" viewBox="0 0 30 30">
  <g id="Previous_Border" data-name="Previous Border" transform="translate(-139 -1403)">
    <g id="Ellipse_1" data-name="Ellipse 1" transform="translate(139 1403)" fill="rgba(255,255,255,0)" stroke="#6ca100" stroke-width="1.5">
      <circle cx="15" cy="15" r="15" stroke="none"/>
      <circle cx="15" cy="15" r="14.25" fill="none"/>
    </g>
    <g id="right-arrow" transform="translate(150.457 1411.97)">
      <g id="Group_147" data-name="Group 147" transform="translate(0 0)">
        <path id="Path_145" data-name="Path 145" d="M.192,5.559,5.559.193a.661.661,0,0,1,.933,0l.4.4a.66.66,0,0,1,0,.933L2.381,6.027l4.512,4.511a.661.661,0,0,1,0,.933l-.4.395a.661.661,0,0,1-.933,0L.192,6.5a.666.666,0,0,1,0-.936Z" fill="#6ca100"/>
      </g>
    </g>
  </g>
</svg>
