<svg xmlns="http://www.w3.org/2000/svg" width="14.44" height="14.439" viewBox="0 0 14.44 14.439">
  <path id="Send_Icon" data-name="Send Icon" d="M593.88,599.257a.569.569,0,0,1,.411-.585l3.493-1.234,9.711-3.43a.581.581,0,0,1,.658.106.572.572,0,0,1,.117.655q-2.324,6.578-4.643,13.157a.581.581,0,0,1-.518.465.594.594,0,0,1-.6-.416q-1.145-2.465-2.3-4.925a.185.185,0,0,1,.046-.253q1.2-1.19,2.393-2.389a.5.5,0,0,0,.165-.532.6.6,0,0,0-.463-.425.519.519,0,0,0-.509.192c-.776.778-1.556,1.551-2.326,2.334a.257.257,0,0,1-.352.058q-2.444-1.15-4.894-2.287A.581.581,0,0,1,593.88,599.257Z" transform="translate(-593.88 -593.954)" fill="#fff"/>
</svg>
