<svg xmlns="http://www.w3.org/2000/svg" width="17.797" height="17.797" viewBox="0 0 17.797 17.797">
  <path id="twitter_-_grey" data-name="twitter - grey" d="M537.872,1871.411a8.9,8.9,0,1,0,8.9,8.9A8.9,8.9,0,0,0,537.872,1871.411Zm4.955,5.857a.236.236,0,0,1-.051.151,3.951,3.951,0,0,1-.775.809c-.045.034-.117.068-.117.13a5.968,5.968,0,0,1-1.581,4.362,5.859,5.859,0,0,1-5.7,1.334,5.255,5.255,0,0,1-1.1-.442,3.023,3.023,0,0,1-.343-.206c-.027-.021-.051-.041-.024-.055s.041,0,.13,0a3.966,3.966,0,0,0,1.65-.209,2.6,2.6,0,0,0,1.087-.576h0a.667.667,0,0,1-.216-.024,2.15,2.15,0,0,1-1.591-1.334c0-.055,0-.082.058-.069a2.26,2.26,0,0,0,.754-.024,1.328,1.328,0,0,1-.257-.079,2.058,2.058,0,0,1-1.265-1.636,1.763,1.763,0,0,1,0-.23c0-.055.027-.069.075-.038a2.165,2.165,0,0,0,.768.216c-.089-.072-.164-.144-.243-.216a2.027,2.027,0,0,1-.343-2.4c.038-.058.062-.058.11,0a6.193,6.193,0,0,0,4,2.034c.041,0,.045,0,.038-.045a2.15,2.15,0,0,1,.021-.836,2,2,0,0,1,.394-.792,2.2,2.2,0,0,1,.662-.542,2.076,2.076,0,0,1,.82-.226,1.962,1.962,0,0,1,1.43.483c.034.031.065.065.1.1a.078.078,0,0,0,.079.024,5.214,5.214,0,0,0,1.166-.446.048.048,0,0,1,.051,0v.051a1.739,1.739,0,0,1-.343.593c-.089.117-.322.4-.48.429a4.221,4.221,0,0,0,.981-.278c.041-.021.041-.027.041,0Z" transform="translate(-528.97 -1871.411)" fill="#979797"/>
</svg>
