<svg xmlns="http://www.w3.org/2000/svg" width="18" height="18" viewBox="0 0 18 18">
  <g id="website" transform="translate(-6340 -707)">
    <rect id="Rectangle_17" data-name="Rectangle 17" width="18" height="18" transform="translate(6340 707)" fill="rgba(255,255,255,0)"/>
    <g id="Group_42258" data-name="Group 42258" transform="translate(6340 707)">
      <path id="Path_24960" data-name="Path 24960" d="M736.98,747.228c.057-.415.1-.844.179-1.26a8.443,8.443,0,0,1,1.016-2.719.2.2,0,0,1,.129-.1c.158-.05.329-.079.544-.129l-.623.5a1.36,1.36,0,0,0,.887.358,10.952,10.952,0,0,0,1.875-.243.286.286,0,0,1,.365.15c.229.415.494.816.716,1.224a.573.573,0,0,1,.079.265v1.152a.458.458,0,0,0,.072.236c.372.508.716,1.009,1.109,1.517a.243.243,0,0,0,.308.107v-.515h.043a5.627,5.627,0,0,1,.279.594.623.623,0,0,0,.58.458,8.727,8.727,0,0,1,.952.215.542.542,0,0,1,.236.129c.336.329.623.716,1.2.716a8.282,8.282,0,0,1-.429.873.666.666,0,0,0,0,.809,6.959,6.959,0,0,1,.83,2.147.416.416,0,0,1,0,.186c-.072.308-.129.63-.229.93a3.13,3.13,0,0,0-.086,1.431v.279c-.379,0-.716.064-1.124.064a8.981,8.981,0,0,1-8.8-7.157c-.078-.371-.107-.757-.157-1.144v-.165Z" transform="translate(-736.93 -738.712)" fill="#6ca100"/>
      <path id="Path_24961" data-name="Path 24961" d="M747.355,737c.322.043.651.086.98.143a8.644,8.644,0,0,1,2.211.716v.057a2.3,2.3,0,0,1-.544,0,1.031,1.031,0,0,0-1.073.244l-.494.487a.437.437,0,0,1-.193.093c-.444.05-.895.107-1.346.129a5.61,5.61,0,0,1-.716-.064.243.243,0,0,0-.179.079c-.122.165-.215.336-.329.5a.3.3,0,0,1-.193.114,9.962,9.962,0,0,1-1.131.05,3.16,3.16,0,0,1-.716-.172.343.343,0,0,0-.322,0,2.533,2.533,0,0,1-1.331.429,8.676,8.676,0,0,0-1.911.422l-.165.043-.036-.043c.336-.329.651-.673,1-.98a8.788,8.788,0,0,1,4.437-2.1c.3-.05.6-.079.9-.122Zm-.716,1.2a.716.716,0,0,0,.673.236,2.011,2.011,0,0,0,.53-.086q.427-.287.823-.615l-.53-.308a.164.164,0,0,0-.129,0Zm-2.755.258.515.3a.151.151,0,0,0,.093,0l1.181-.308c-.079-.136-.158-.258-.222-.379s-.1-.121-.208-.078a.716.716,0,0,1-.716,0,.093.093,0,0,0-.093,0Z" transform="translate(-737.766 -737)" fill="#6ca100"/>
      <path id="Path_24962" data-name="Path 24962" d="M754.506,742.619c.129-.208.236-.365.336-.537a.286.286,0,0,1,.258-.164l1.188-.1h.086c.272-.057.272-.057.422.179a8.967,8.967,0,0,1-5.41,13.418h-.093c.079-.308.115-.594.437-.773a13.045,13.045,0,0,0,1.138-.751.522.522,0,0,0,.164-.208c.115-.279.2-.565.315-.837a.757.757,0,0,1,.179-.193h.043a3.331,3.331,0,0,0,.873-.436,3.157,3.157,0,0,0,.472-.852l.551-1.052c-.243-.136-.465-.293-.716-.408a4.117,4.117,0,0,1-1.517-1.26.458.458,0,0,0-.365-.193,3.931,3.931,0,0,1-.716-.143c-.422-.086-.844-.193-1.267-.25a1.312,1.312,0,0,0-.558.122.3.3,0,0,1-.408-.129.923.923,0,0,0-.716-.422l.036-.651a.666.666,0,0,0-.83.365l-.179-.716.63-.3a.242.242,0,0,1,.157,0l.508.229a.617.617,0,0,0,.15.05c.315.05.351,0,.422-.286a.93.93,0,0,1,.25-.5l.072-.079a4.238,4.238,0,0,1,2.226-1.7.41.41,0,0,1,.186,0,5.72,5.72,0,0,1,.716.086c.143-.294.129-.394-.079-.6s-.222-.243-.343-.351a3.114,3.114,0,0,1-.866-1.209.2.2,0,0,0-.222-.15,1.389,1.389,0,0,1-.766-.165,3.227,3.227,0,0,0-.823-.172l-.172.945a4.82,4.82,0,0,1-.88-.179c-.186-.072-.093-.329-.129-.508a.56.56,0,0,1,.143-.114,2.6,2.6,0,0,1,.394-.093c.143,0,.193-.079.222-.215.057-.286.129-.565.2-.873.222.093.444.172.658.279a.577.577,0,0,1,.057.172c0,.293,0,.293.272.408a.514.514,0,0,1,.207.086.716.716,0,0,0,.873-.122c-.143-.165-.293-.344-.451-.515a6.7,6.7,0,0,0-.565-.544.5.5,0,0,1-.157-.587,2.9,2.9,0,0,1,1.059.358,2.361,2.361,0,0,1,.794,1.331.716.716,0,0,0,.236.372c.272.229.522.472.787.716A4.619,4.619,0,0,0,754.506,742.619Z" transform="translate(-740.143 -737.745)" fill="#6ca100"/>
    </g>
  </g>
</svg>
