<svg xmlns="http://www.w3.org/2000/svg" width="17.757" height="17.757" viewBox="0 0 17.757 17.757">
  <g id="youtube_-_grey" data-name="youtube - grey" transform="translate(-1209.253 -70.96)">
    <path id="Path_20645" data-name="Path 20645" d="M224.113,211.366,227,209.7l-2.888-1.663Zm0,0" transform="translate(992.913 -129.865)" fill="#979797"/>
    <path id="Path_20646" data-name="Path 20646" d="M8.878,0a8.878,8.878,0,1,0,8.878,8.878A8.879,8.879,0,0,0,8.878,0Zm5.548,8.887a14.653,14.653,0,0,1-.228,2.669,1.39,1.39,0,0,1-.978.978,33.745,33.745,0,0,1-4.341.229,32.538,32.538,0,0,1-4.341-.238,1.39,1.39,0,0,1-.978-.978,14.589,14.589,0,0,1-.229-2.669A14.644,14.644,0,0,1,3.559,6.21a1.418,1.418,0,0,1,.978-.987,33.745,33.745,0,0,1,4.341-.229,32.468,32.468,0,0,1,4.341.238,1.39,1.39,0,0,1,.978.978,13.905,13.905,0,0,1,.228,2.678Zm0,0" transform="translate(1209.253 70.96)" fill="#979797"/>
  </g>
</svg>
